<svg width="367" height="339" viewBox="0 0 367 339" fill="none" xmlns="http://www.w3.org/2000/svg">
<g clip-path="url(#clip0_9458_15983)">
<circle cx="183.5" cy="197.5" r="172.5" fill="#364CCD" fill-opacity="0.05"/>
<path d="M46.8877 297.439L47.0345 300.111V300.536L47.3721 306.797L47.4309 307.987L47.7318 313.499L47.8346 315.451L48.0915 320.193L48.2309 322.901L48.4511 326.887L48.6346 330.359L48.8108 333.588C48.8108 333.588 48.8108 334.322 48.8915 335.137" stroke="#263238" stroke-linecap="round" stroke-linejoin="round"/>
<path d="M48.9873 336.4C49.024 337.178 49.0607 337.816 49.0607 337.816V338.425H83.4926L83.566 337.082L83.7349 333.919L83.9257 330.381L84.1312 326.476L84.2854 323.687L84.5349 319.011L84.645 316.993L84.7698 314.725" stroke="#263238" stroke-linecap="round" stroke-linejoin="round"/>
<path d="M84.8799 313.264C84.9239 312.317 84.968 311.561 84.968 311.561L85.034 310.298L85.3643 304.103V303.604C85.3643 303.604 85.4524 301.96 85.5405 300.375" stroke="#263238" stroke-linecap="round" stroke-linejoin="round"/>
<path d="M85.6357 299.024C85.6871 298.122 85.7238 297.439 85.7238 297.439" stroke="#263238" stroke-linecap="round" stroke-linejoin="round"/>
<path d="M49.6698 338.425L49.0605 337.816" stroke="#263238" stroke-linecap="round" stroke-linejoin="round"/>
<path d="M56.7234 338.425L53.8828 335.585L50.3596 332.062L48.6567 330.359" stroke="#263238" stroke-linecap="round" stroke-linejoin="round"/>
<path d="M63.7844 338.425L60.9438 335.585L57.4133 332.054L53.8901 328.538L50.3595 325.008L48.2529 322.909" stroke="#263238" stroke-linecap="round" stroke-linejoin="round"/>
<path d="M70.8311 338.425L67.9905 335.585L64.4673 332.062L63.5352 331.129" stroke="#263238" stroke-linecap="round" stroke-linejoin="round"/>
<path d="M62.5149 330.116L60.9221 328.531L57.3989 325.008L53.8831 321.492L50.3525 317.961L49.4497 317.059" stroke="#263238" stroke-linecap="round" stroke-linejoin="round"/>
<path d="M77.8921 338.425L75.0515 335.585L71.521 332.054L67.9978 328.538L64.4672 325.008L60.944 321.485L57.4135 317.954L53.883 314.423L50.3598 310.893L47.4531 307.994" stroke="#263238" stroke-linecap="round" stroke-linejoin="round"/>
<path d="M83.595 337.082L82.127 335.614L78.6038 332.091L77.5542 331.034" stroke="#263238" stroke-linecap="round" stroke-linejoin="round"/>
<path d="M76.1013 329.566L75.0443 328.502L71.5211 324.979L67.9906 321.492L64.4674 317.962L60.9222 314.424L57.399 310.893L55.7842 309.264" stroke="#263238" stroke-linecap="round" stroke-linejoin="round"/>
<path d="M53.8828 307.37L50.3522 303.876L48.4438 301.96" stroke="#263238" stroke-linecap="round" stroke-linejoin="round"/>
<path d="M51.0132 297.446L53.8831 300.309L57.4137 303.839L60.9369 307.363L64.4674 310.893L67.9979 314.431L71.5211 317.954L75.0517 321.485L78.5749 325.008L82.1054 328.539L83.9551 330.388" stroke="#263238" stroke-linecap="round" stroke-linejoin="round"/>
<path d="M58.0669 297.446L60.9442 300.316L64.4674 303.839L67.9979 307.37L71.5211 310.893L75.0517 314.431L78.5822 317.962L82.1054 321.485L84.3147 323.694" stroke="#263238" stroke-linecap="round" stroke-linejoin="round"/>
<path d="M65.1206 297.446L67.9905 300.309L71.5211 303.839L75.0516 307.37L78.5748 310.893L82.1054 314.431L84.6744 317" stroke="#263238" stroke-linecap="round" stroke-linejoin="round"/>
<path d="M72.1743 297.446L75.0516 300.316L78.5748 303.839L82.1053 307.37L85.034 310.299" stroke="#263238" stroke-linecap="round" stroke-linejoin="round"/>
<path d="M79.228 297.446L82.1053 300.316L85.3936 303.605" stroke="#263238" stroke-linecap="round" stroke-linejoin="round"/>
<path d="M83.7641 333.926L82.0979 335.585L79.2573 338.425" stroke="#263238" stroke-linecap="round" stroke-linejoin="round"/>
<path d="M84.1605 326.483L82.1053 328.538L78.5747 332.062L75.0515 335.585L72.2109 338.425" stroke="#263238" stroke-linecap="round" stroke-linejoin="round"/>
<path d="M84.5642 319.019L82.1053 321.485L78.5748 325.008L75.0442 328.539L71.521 332.054L67.9905 335.585L65.1499 338.426" stroke="#263238" stroke-linecap="round" stroke-linejoin="round"/>
<path d="M84.9677 311.561L82.1051 314.424L78.5819 317.954L75.0514 321.477L74.5449 321.991" stroke="#263238" stroke-linecap="round" stroke-linejoin="round"/>
<path d="M72.754 323.775L71.5209 325.008L67.9977 328.531L64.4672 332.062L60.922 335.585C60.922 335.585 60.188 336.319 59.52 336.987" stroke="#263238" stroke-linecap="round" stroke-linejoin="round"/>
<path d="M85.3643 304.104L82.1054 307.37L78.5748 310.893L75.0516 314.431L71.5211 317.954L67.9905 321.485L64.4673 325.008L60.9368 328.538L57.4136 332.054L53.8831 335.585L51.0425 338.425" stroke="#263238" stroke-linecap="round" stroke-linejoin="round"/>
<path d="M48.833 333.588L50.3597 332.062L53.8903 328.531L57.4135 325.008L60.922 321.492L62.001 320.413" stroke="#263238" stroke-linecap="round" stroke-linejoin="round"/>
<path d="M63.5718 318.85L64.4673 317.947L67.9978 314.423L71.521 310.893L75.0515 307.37L78.5747 303.839L82.1053 300.316L83.5072 298.914" stroke="#263238" stroke-linecap="round" stroke-linejoin="round"/>
<path d="M48.4731 326.894L50.3595 325.008L53.8827 321.485L57.4133 317.954L60.9365 314.431L64.467 310.893L67.9975 307.37L71.5207 303.839L75.0513 300.316L77.9212 297.446" stroke="#263238" stroke-linecap="round" stroke-linejoin="round"/>
<path d="M48.1138 320.193L50.3158 317.947L53.8463 314.416L55.1675 313.102" stroke="#263238" stroke-linecap="round" stroke-linejoin="round"/>
<path d="M56.1729 312.133L57.4133 310.893L60.9365 307.362L64.4671 303.839L67.9902 300.309L69.0912 299.215" stroke="#263238" stroke-linecap="round" stroke-linejoin="round"/>
<path d="M47.7539 313.499L50.3596 310.893L53.8828 307.37L57.4133 303.876L60.9439 300.353L62.6688 298.628" stroke="#263238" stroke-linecap="round" stroke-linejoin="round"/>
<path d="M47.3945 306.805L50.3526 303.839L53.8831 300.309L56.7604 297.446" stroke="#263238" stroke-linecap="round" stroke-linejoin="round"/>
<path d="M49.7064 297.439L47.0347 300.111" stroke="#263238" stroke-linecap="round" stroke-linejoin="round"/>
<path d="M57.7876 292.947H82.9418" stroke="#263238" stroke-linecap="round" stroke-linejoin="round"/>
<path d="M84.41 292.947H87.1699V297.446H77.4297" stroke="#263238" stroke-linecap="round" stroke-linejoin="round"/>
<path d="M75.0146 297.446H55.0498" stroke="#263238" stroke-linecap="round" stroke-linejoin="round"/>
<path d="M54.2059 297.446H45.4419V295.545" stroke="#263238" stroke-linecap="round" stroke-linejoin="round"/>
<path d="M45.4419 295.163V292.961H55.3656" stroke="#263238" stroke-linecap="round" stroke-linejoin="round"/>
<path d="M72.2402 258.082V288.947" stroke="#263238" stroke-linecap="round" stroke-linejoin="round"/>
<path d="M72.2402 248.041V254.617" stroke="#263238" stroke-linecap="round" stroke-linejoin="round"/>
<path d="M212.383 338.308V231.768H72.2402V244.319" stroke="#263238" stroke-linecap="round" stroke-linejoin="round"/>
<path d="M193.556 238.014H204.771V333.067" stroke="#263238" stroke-linecap="round" stroke-linejoin="round"/>
<path d="M79.8521 288.954V238.014H187.053" stroke="#263238" stroke-linecap="round" stroke-linejoin="round"/>
<path d="M85.2246 225.844H88.7845" stroke="#263238" stroke-linecap="round" stroke-linejoin="round"/>
<path d="M93.8933 225.844H215.59V231.724H69.0327V225.844H82.9567" stroke="#263238" stroke-linecap="round" stroke-linejoin="round"/>
<path d="M244.598 222.938L242.844 234.285" stroke="#263238" stroke-linecap="round" stroke-linejoin="round"/>
<path d="M233.875 176.366H242.338C243.507 176.362 244.663 176.612 245.726 177.099C246.789 177.586 247.734 178.298 248.494 179.186C249.255 180.074 249.814 181.116 250.132 182.241C250.451 183.366 250.521 184.547 250.338 185.702L245.552 216.736" stroke="#263238" stroke-linecap="round" stroke-linejoin="round"/>
<path d="M225.265 176.365H231.452" stroke="#263238" stroke-linecap="round" stroke-linejoin="round"/>
<path d="M189.651 218.908L195.149 183.228C195.439 181.316 196.406 179.571 197.874 178.311C199.343 177.052 201.215 176.361 203.149 176.365H220.861" stroke="#263238" stroke-linecap="round" stroke-linejoin="round"/>
<path d="M183.515 258.713L186.267 240.84" stroke="#263238" stroke-linecap="round" stroke-linejoin="round"/>
<path d="M214.82 281.511H223.239C227.253 281.516 231.111 279.961 233.999 277.173" stroke="#263238" stroke-linecap="round" stroke-linejoin="round"/>
<path d="M168.416 281.511H197.754" stroke="#263238" stroke-linecap="round" stroke-linejoin="round"/>
<path d="M156.291 278.861C158.849 280.593 161.869 281.517 164.959 281.511" stroke="#263238" stroke-linecap="round" stroke-linejoin="round"/>
<path d="M202.305 258.713H155.234C153.7 258.713 152.228 259.322 151.144 260.407C150.059 261.492 149.45 262.963 149.45 264.497V265.965C149.446 269.461 150.626 272.855 152.797 275.595" stroke="#263238" stroke-linecap="round" stroke-linejoin="round"/>
<path d="M238.322 262.317C237.889 261.251 237.148 260.339 236.193 259.697C235.239 259.056 234.115 258.713 232.964 258.713H224.604" stroke="#263238" stroke-linecap="round" stroke-linejoin="round"/>
<path d="M202.408 285.776H182.267L178.032 281.511" stroke="#263238" stroke-linecap="round" stroke-linejoin="round"/>
<path d="M188.058 285.776H200.147V299.898C200.147 300.252 200.006 300.592 199.756 300.842C199.505 301.093 199.166 301.234 198.811 301.234H189.372C189.018 301.234 188.678 301.093 188.427 300.842C188.177 300.592 188.036 300.252 188.036 299.898V285.776H188.058Z" stroke="#263238" stroke-linecap="round" stroke-linejoin="round"/>
<path d="M197.879 301.226H190.319V318.637H197.879V301.226Z" stroke="#263238" stroke-linecap="round" stroke-linejoin="round"/>
<path d="M159.439 329.36C172.042 320.971 190.319 318.637 190.319 318.637" stroke="#263238" stroke-linecap="round" stroke-linejoin="round"/>
<path d="M202.378 326.858C189.629 324.986 176.938 327.804 164.944 330.895" stroke="#263238" stroke-linecap="round" stroke-linejoin="round"/>
<path d="M223.224 330.894C220.288 330.16 217.352 329.493 214.416 328.891" stroke="#263238" stroke-linecap="round" stroke-linejoin="round"/>
<path d="M214.82 322.732C219.732 324.329 224.419 326.549 228.766 329.338" stroke="#263238" stroke-linecap="round" stroke-linejoin="round"/>
<path d="M197.879 318.637C199.472 318.857 201.057 319.143 202.628 319.459" stroke="#263238" stroke-linecap="round" stroke-linejoin="round"/>
<path d="M160.922 338.844C163.541 338.844 165.664 336.721 165.664 334.102C165.664 331.483 163.541 329.361 160.922 329.361C158.304 329.361 156.181 331.483 156.181 334.102C156.181 336.721 158.304 338.844 160.922 338.844Z" stroke="#263238" stroke-linecap="round" stroke-linejoin="round"/>
<path d="M232.678 334.102C232.678 335.04 232.4 335.957 231.879 336.737C231.358 337.516 230.617 338.124 229.751 338.483C228.885 338.842 227.931 338.936 227.011 338.753C226.092 338.57 225.247 338.118 224.584 337.455C223.92 336.792 223.469 335.947 223.286 335.027C223.103 334.107 223.197 333.154 223.556 332.288C223.915 331.421 224.522 330.681 225.302 330.16C226.082 329.639 226.999 329.361 227.936 329.361C229.194 329.361 230.4 329.86 231.289 330.749C232.179 331.639 232.678 332.845 232.678 334.102Z" stroke="#263238" stroke-linecap="round" stroke-linejoin="round"/>
<path d="M222.16 271.837L225.881 246.624C226.053 245.448 226.603 244.359 227.448 243.522C228.292 242.686 229.386 242.146 230.564 241.985L247.857 239.607C248.5 239.52 249.089 239.203 249.516 238.714C249.942 238.225 250.177 237.598 250.176 236.95C250.176 236.237 249.893 235.554 249.39 235.05C248.886 234.546 248.202 234.263 247.49 234.263H245.288L228.156 236.906C226.116 237.234 224.236 238.215 222.801 239.703C221.367 241.191 220.454 243.105 220.2 245.156L216.618 272.49C216.587 272.728 216.606 272.971 216.676 273.2C216.746 273.43 216.864 273.643 217.022 273.823C217.181 274.004 217.376 274.149 217.595 274.248C217.814 274.347 218.051 274.399 218.291 274.399" stroke="#263238" stroke-linecap="round" stroke-linejoin="round"/>
<path d="M247.857 239.629L243.358 263.565C243.954 263.565 244.526 263.801 244.949 264.222C245.371 264.643 245.609 265.214 245.611 265.811V270.384C245.611 271.133 245.463 271.875 245.176 272.568C244.889 273.26 244.469 273.889 243.938 274.419C243.408 274.949 242.778 275.368 242.085 275.655C241.393 275.941 240.65 276.088 239.901 276.087H218.872" stroke="#263238" stroke-linecap="round" stroke-linejoin="round"/>
<path d="M244.877 240.04L240.201 263.051H227.907" stroke="#263238" stroke-linecap="round" stroke-linejoin="round"/>
<path d="M155.292 245.119L154.037 254.727" stroke="#263238" stroke-linecap="round" stroke-linejoin="round"/>
<path d="M159.674 255.682L161.01 246.624C161.182 245.448 161.732 244.359 162.577 243.522C163.421 242.686 164.515 242.146 165.693 241.985L182.986 239.607" stroke="#263238" stroke-linecap="round" stroke-linejoin="round"/>
<path d="M120.809 189.878L127.547 221.308C127.689 221.962 128.05 222.548 128.571 222.968C129.092 223.389 129.74 223.619 130.41 223.62H180.505C180.802 223.621 181.096 223.555 181.364 223.426C181.633 223.298 181.868 223.111 182.055 222.879C182.241 222.647 182.372 222.376 182.439 222.087C182.507 221.797 182.508 221.496 182.443 221.206L175.426 189.768C175.279 189.119 174.916 188.538 174.396 188.122C173.876 187.705 173.229 187.479 172.563 187.478H122.747C122.451 187.478 122.159 187.544 121.892 187.672C121.625 187.799 121.39 187.985 121.204 188.215C121.018 188.445 120.886 188.714 120.818 189.002C120.749 189.29 120.746 189.589 120.809 189.878Z" stroke="#263238" stroke-linecap="round" stroke-linejoin="round"/>
<path d="M149.707 201.968H145.831L144.73 205.439L147.512 208.911H151.387L152.488 205.439L149.707 201.968Z" stroke="#263238" stroke-linecap="round" stroke-linejoin="round"/>
<path d="M184.895 221.485H204.786V222.564C204.784 223.08 204.577 223.575 204.211 223.939C203.846 224.304 203.35 224.509 202.833 224.509H202.32" stroke="#263238" stroke-linecap="round" stroke-linejoin="round"/>
<path d="M293.387 299.2C293.387 299.2 304.434 300.074 304.896 308.229C304.896 308.229 293.71 313.374 293.387 299.2Z" stroke="#263238" stroke-linecap="round" stroke-linejoin="round"/>
<path d="M315.246 301.226C315.246 301.226 321.419 292.881 331.394 297.16C331.394 297.16 325.301 307.252 315.246 301.226Z" stroke="#263238" stroke-linecap="round" stroke-linejoin="round"/>
<path d="M330.55 274.876C330.55 274.876 332.319 290.935 317.705 286.509C317.705 286.509 322.351 274.707 330.55 274.876Z" stroke="#263238" stroke-linecap="round" stroke-linejoin="round"/>
<path d="M312.603 265.943C312.603 265.943 324.164 272.175 315.664 281.628C315.664 281.628 307.546 274.876 312.603 265.943Z" stroke="#263238" stroke-linecap="round" stroke-linejoin="round"/>
<path d="M298.386 280.285C298.386 280.285 310.952 279.023 310.952 290.649C310.952 290.664 298.386 291.149 298.386 280.285Z" stroke="#263238" stroke-linecap="round" stroke-linejoin="round"/>
<path d="M307.803 314.791C307.619 310.893 307.619 305.872 310.005 300.558C315.503 288.315 317.345 278.002 314.49 270.736" stroke="#263238" stroke-linecap="round" stroke-linejoin="round"/>
<path d="M302.511 283.412C302.511 283.412 310.042 286.407 312.603 294.165" stroke="#263238" stroke-linecap="round" stroke-linejoin="round"/>
<path d="M326.571 281.298C326.571 281.298 322.219 287.229 314.827 286.59" stroke="#263238" stroke-linecap="round" stroke-linejoin="round"/>
<path d="M326.571 298.863C326.571 298.863 314.519 302.342 309.726 301.204" stroke="#263238" stroke-linecap="round" stroke-linejoin="round"/>
<path d="M296.991 302.87C296.991 302.87 302.379 308.786 307.803 308.691" stroke="#263238" stroke-linecap="round" stroke-linejoin="round"/>
<path d="M322.13 314.791H295.934C295.765 314.791 295.602 314.858 295.482 314.978C295.363 315.097 295.295 315.26 295.295 315.429V317.418C295.295 317.588 295.363 317.75 295.482 317.87C295.602 317.99 295.765 318.057 295.934 318.057H296.668L299.002 338.425H319.004L321.338 318.057H322.072C322.241 318.057 322.404 317.99 322.523 317.87C322.643 317.75 322.71 317.588 322.71 317.418V315.429C322.711 315.269 322.652 315.115 322.544 314.997C322.437 314.879 322.289 314.805 322.13 314.791Z" stroke="#263238" stroke-linecap="round" stroke-linejoin="round"/>
<path d="M298.386 318.057H313.616" stroke="#263238" stroke-linecap="round" stroke-linejoin="round"/>
<path d="M316.494 318.057H318.784" stroke="#263238" stroke-linecap="round" stroke-linejoin="round"/>
<path d="M168.959 64.0485V268.042C168.959 268.511 168.773 268.961 168.441 269.293C168.109 269.624 167.66 269.811 167.19 269.811H46.3519C45.8828 269.811 45.4329 269.624 45.1011 269.293C44.7694 268.961 44.583 268.511 44.583 268.042V64.0485C44.583 63.5793 44.7694 63.1294 45.1011 62.7977C45.4329 62.4659 45.8828 62.2795 46.3519 62.2795H84.5566C85.053 62.2795 85.5291 62.4767 85.8801 62.8278C86.2311 63.1788 86.4283 63.6548 86.4283 64.1512V68.4378C86.4283 68.9342 86.6255 69.4103 86.9766 69.7613C87.3276 70.1123 87.8036 70.3095 88.3 70.3095H125.25C125.746 70.3095 126.222 70.1123 126.573 69.7613C126.924 69.4103 127.121 68.9342 127.121 68.4378V64.1512C127.121 63.6548 127.318 63.1788 127.67 62.8278C128.021 62.4767 128.497 62.2795 128.993 62.2795H167.161C167.396 62.2756 167.629 62.3185 167.847 62.4057C168.065 62.4928 168.263 62.6225 168.431 62.7872C168.598 62.9518 168.731 63.1481 168.822 63.3647C168.913 63.5812 168.959 63.8137 168.959 64.0485Z" fill="white" stroke="#263238" stroke-linecap="round" stroke-linejoin="round"/>
<path d="M168.959 82.406H44.583V101.145H168.959V82.406Z" fill="#BFBFBF" stroke="#263238" stroke-linecap="round" stroke-linejoin="round"/>
<path d="M60.8486 138.689H111.473" stroke="#263238" stroke-width="3" stroke-linecap="round" stroke-linejoin="round"/>
<path d="M73.3486 147.475H152.694" stroke="#263238" stroke-width="3" stroke-linecap="round" stroke-linejoin="round"/>
<path d="M60.8486 154.037H152.694" stroke="#263238" stroke-width="3" stroke-linecap="round" stroke-linejoin="round"/>
<path d="M60.8486 160.599H152.694" stroke="#263238" stroke-width="3" stroke-linecap="round" stroke-linejoin="round"/>
<path d="M60.8486 167.154H152.694" stroke="#263238" stroke-width="3" stroke-linecap="round" stroke-linejoin="round"/>
<path d="M60.8486 173.716H152.694" stroke="#263238" stroke-width="3" stroke-linecap="round" stroke-linejoin="round"/>
<path d="M60.8486 180.278H152.694" stroke="#263238" stroke-width="3" stroke-linecap="round" stroke-linejoin="round"/>
<path d="M60.8486 186.832H103.494" stroke="#263238" stroke-width="3" stroke-linecap="round" stroke-linejoin="round"/>
<path d="M154.962 89.467H159.652" stroke="#263238" stroke-linecap="round" stroke-linejoin="round"/>
<path d="M154.962 91.6326H159.652" stroke="#263238" stroke-linecap="round" stroke-linejoin="round"/>
<path d="M154.962 93.7905H159.652" stroke="#263238" stroke-linecap="round" stroke-linejoin="round"/>
<path d="M57.6189 91.6326H53.6553" stroke="#263238" stroke-linecap="round" stroke-linejoin="round"/>
<path d="M55.4754 94.0252L53.0752 91.625L55.4754 89.2249" stroke="#263238" stroke-linecap="round" stroke-linejoin="round"/>
<path d="M148.048 89.467H142.139V93.783H148.048V89.467Z" stroke="#263238" stroke-linecap="round" stroke-linejoin="round"/>
<path d="M142.139 89.467L145.09 91.625L148.048 89.467" stroke="#263238" stroke-linecap="round" stroke-linejoin="round"/>
<path d="M134.505 94.6197H130.527L129.999 89.467H135.034L134.505 94.6197Z" stroke="#263238" stroke-linecap="round" stroke-linejoin="round"/>
<path d="M131.525 89.4671V88.6377H133.515V89.4671" stroke="#263238" stroke-linecap="round" stroke-linejoin="round"/>
<path d="M168.959 254.926V268.042C168.96 268.274 168.915 268.504 168.827 268.719C168.739 268.933 168.61 269.128 168.446 269.292C168.282 269.457 168.088 269.587 167.874 269.676C167.659 269.765 167.43 269.811 167.198 269.811H46.3519C45.8828 269.811 45.4329 269.625 45.1011 269.293C44.7694 268.961 44.583 268.511 44.583 268.042V254.926H168.959Z" fill="#F59261" stroke="#263238" stroke-linecap="round" stroke-linejoin="round"/>
<path d="M76.145 116.933H126.776" stroke="#263238" stroke-width="3" stroke-linecap="round" stroke-linejoin="round"/>
<path d="M66.8382 123.093C70.2434 122.54 72.5557 119.331 72.003 115.926C71.4503 112.521 68.2417 110.209 64.8365 110.761C61.4314 111.314 59.119 114.523 59.6717 117.928C60.2245 121.333 63.433 123.645 66.8382 123.093Z" fill="#F59261" stroke="#263238" stroke-linecap="round" stroke-linejoin="round"/>
<path d="M68.3864 120.838C68.0047 120.838 66.9184 120.002 67.2854 119.319C67.6524 118.636 68.3864 117.506 68.3864 117.506C68.7092 116.87 68.8896 116.171 68.9149 115.458C69.069 114.394 68.4598 112.581 65.8321 112.581C63.2044 112.581 62.5878 114.394 62.742 115.458C62.7673 116.171 62.9476 116.87 63.2704 117.506C63.2704 117.506 64.0044 118.636 64.3788 119.319C64.7531 120.002 63.6448 120.838 63.2704 120.838C62.6567 120.975 62.057 121.169 61.4795 121.418C61.4795 121.418 63.9971 123.187 65.8321 123.187C67.6671 123.187 70.1847 121.418 70.1847 121.418C69.605 121.168 69.0029 120.974 68.3864 120.838Z" fill="#263238"/>
<path d="M44.583 199.787H168.959" stroke="#263238" stroke-linecap="round" stroke-linejoin="round"/>
<path d="M168.959 233.933H44.583V254.926H168.959V233.933Z" fill="#BFBFBF" stroke="#263238" stroke-linecap="round" stroke-linejoin="round"/>
<path d="M141.662 207.663H151.938C152.901 207.663 153.825 208.046 154.507 208.727C155.188 209.409 155.571 210.333 155.571 211.296V221.572C155.571 222.536 155.188 223.46 154.507 224.142C153.825 224.823 152.901 225.206 151.938 225.206H141.662C140.7 225.206 139.778 224.824 139.098 224.144C138.418 223.464 138.036 222.541 138.036 221.58V211.304C138.034 210.826 138.126 210.353 138.307 209.912C138.489 209.47 138.756 209.069 139.092 208.73C139.429 208.392 139.83 208.124 140.271 207.94C140.712 207.757 141.184 207.663 141.662 207.663Z" fill="#F59261" stroke="#263238" stroke-linecap="round" stroke-linejoin="round"/>
<path d="M144.114 215.062L146.58 212.596C146.833 212.342 147.133 212.142 147.464 212.004C147.794 211.867 148.149 211.797 148.507 211.797C148.864 211.797 149.219 211.867 149.549 212.004C149.88 212.142 150.18 212.342 150.433 212.596C150.945 213.108 151.233 213.802 151.233 214.526C151.233 215.25 150.945 215.944 150.433 216.457L146.418 220.471C146.249 220.641 146.048 220.775 145.827 220.867C145.606 220.958 145.369 221.006 145.13 221.006C144.891 221.006 144.654 220.958 144.433 220.867C144.212 220.775 144.011 220.641 143.842 220.471C143.504 220.129 143.314 219.668 143.314 219.187C143.314 218.706 143.504 218.245 143.842 217.902L147.659 214.086C147.818 213.926 148.035 213.836 148.261 213.836C148.486 213.836 148.703 213.926 148.863 214.086C148.942 214.164 149.006 214.258 149.049 214.361C149.093 214.465 149.115 214.576 149.115 214.688C149.115 214.8 149.093 214.911 149.049 215.014C149.006 215.117 148.942 215.211 148.863 215.289L146.8 217.345" stroke="#263238" stroke-width="1.5" stroke-linecap="round" stroke-linejoin="round"/>
<path d="M60.8486 213.131H129.72" stroke="#263238" stroke-width="3" stroke-linecap="round" stroke-linejoin="round"/>
<path d="M60.8486 219.693H118.233" stroke="#263238" stroke-width="3" stroke-linecap="round" stroke-linejoin="round"/>
<path d="M75.9981 239.122H62.7421C61.3962 239.122 60.3052 240.213 60.3052 241.559V247.182C60.3052 248.527 61.3962 249.619 62.7421 249.619H75.9981C77.3439 249.619 78.435 248.527 78.435 247.182V241.559C78.435 240.213 77.3439 239.122 75.9981 239.122Z" stroke="#263238" stroke-linecap="round" stroke-linejoin="round"/>
<path d="M72.1004 246.507V245.773C72.1004 245.529 72.0524 245.287 71.9591 245.062C71.8658 244.837 71.729 244.632 71.5565 244.459C71.3841 244.287 71.1794 244.15 70.9541 244.057C70.7288 243.964 70.4873 243.916 70.2434 243.916H67.1753" stroke="#263238" stroke-linecap="round" stroke-linejoin="round"/>
<path d="M68.3058 245.56L66.647 243.901L68.3058 242.242" stroke="#263238" stroke-linecap="round" stroke-linejoin="round"/>
<path d="M113.851 239.122H100.595C99.2487 239.122 98.1577 240.213 98.1577 241.559V247.182C98.1577 248.527 99.2487 249.619 100.595 249.619H113.851C115.196 249.619 116.288 248.527 116.288 247.182V241.559C116.288 240.213 115.196 239.122 113.851 239.122Z" stroke="#263238" stroke-linecap="round" stroke-linejoin="round"/>
<path d="M110.834 246.507V245.773C110.834 245.28 110.638 244.808 110.29 244.459C109.942 244.111 109.469 243.916 108.977 243.916H105.909" stroke="#263238" stroke-linecap="round" stroke-linejoin="round"/>
<path d="M107.017 245.56L105.358 243.901L107.017 242.242" stroke="#263238" stroke-linecap="round" stroke-linejoin="round"/>
<path d="M105.299 245.56L103.633 243.901L105.299 242.242" stroke="#263238" stroke-linecap="round" stroke-linejoin="round"/>
<path d="M139.313 249.626H152.569C153.915 249.626 155.006 248.535 155.006 247.189V241.567C155.006 240.221 153.915 239.13 152.569 239.13H139.313C137.967 239.13 136.876 240.221 136.876 241.567V247.189C136.876 248.535 137.967 249.626 139.313 249.626Z" stroke="#263238" stroke-linecap="round" stroke-linejoin="round"/>
<path d="M143.21 246.507V245.773C143.21 245.28 143.406 244.808 143.754 244.459C144.103 244.111 144.575 243.916 145.067 243.916H148.136" stroke="#263238" stroke-linecap="round" stroke-linejoin="round"/>
<path d="M147.005 245.56L148.664 243.901L147.005 242.242" stroke="#263238" stroke-linecap="round" stroke-linejoin="round"/>
<path d="M168.959 64.0414V82.3914H44.583V64.0414C44.583 63.5723 44.7694 63.1223 45.1011 62.7906C45.4329 62.4588 45.8828 62.2725 46.3519 62.2725H84.5566C85.053 62.2725 85.5291 62.4697 85.8801 62.8207C86.2311 63.1717 86.4283 63.6478 86.4283 64.1442V68.4307C86.4283 68.9271 86.6255 69.4032 86.9766 69.7542C87.3276 70.1052 87.8036 70.3024 88.3 70.3024H125.25C125.746 70.3024 126.222 70.1052 126.573 69.7542C126.924 69.4032 127.121 68.9271 127.121 68.4307V64.1515C127.121 63.6551 127.318 63.179 127.67 62.828C128.021 62.477 128.497 62.2798 128.993 62.2798H167.161C167.396 62.2739 167.629 62.3152 167.848 62.4011C168.066 62.4871 168.265 62.6161 168.433 62.7803C168.6 62.9446 168.733 63.1409 168.824 63.3575C168.914 63.5741 168.96 63.8067 168.959 64.0414Z" fill="#F59261" stroke="#263238" stroke-linecap="round" stroke-linejoin="round"/>
<path d="M206.056 144.547V146.382" stroke="#263238" stroke-linecap="round" stroke-linejoin="round"/>
<path d="M206.056 149.949V212.376" stroke="#263238" stroke-linecap="round" stroke-linejoin="round" stroke-dasharray="4.86 4.86"/>
<path d="M206.056 214.159V215.994H204.221" stroke="#263238" stroke-linecap="round" stroke-linejoin="round"/>
<path d="M200.764 215.994H161.01" stroke="#263238" stroke-linecap="round" stroke-linejoin="round" stroke-dasharray="4.71 4.71"/>
<path d="M159.285 215.994H157.45" stroke="#263238" stroke-linecap="round" stroke-linejoin="round"/>
<path d="M293.145 324.303C293.145 324.303 293.343 329.94 291.405 331.871C289.468 333.801 290.246 338.844 290.246 338.844H307.766L308.251 333.559L305.315 323.011L293.145 324.303Z" fill="#757575" stroke="#263238" stroke-linecap="round" stroke-linejoin="round"/>
<path d="M250.177 323.011C250.177 323.011 252.107 328.105 244.943 330.572C237.779 333.038 233.522 333.038 232.942 337.097V338.844H248.246L253.076 337.295L254.625 338.844H263.147L264.108 335.746L262.772 325.602L250.177 323.011Z" fill="#757575" stroke="#263238" stroke-linecap="round" stroke-linejoin="round"/>
<path d="M251.432 184.058L247.806 204.111C247.806 204.111 245.707 234.029 245.956 246.507C246.206 258.985 250.558 315.451 250.272 317.705C249.986 319.958 247.666 322.424 247.806 322.791C247.945 323.158 248.687 326.035 248.687 326.035L263.08 328.098L265.077 324.318C265.077 324.318 262.537 321.081 263.08 320.097C263.914 318.148 264.582 316.133 265.077 314.071C265.37 312.721 268.189 236.15 268.189 236.15C268.189 236.15 288.007 311.928 288.007 314.798C288.007 317.668 291.2 320.883 291.2 320.883L290.092 326.63L292.668 329.434C292.668 329.434 300.118 326.05 307.473 329.434L307.084 323.716L304.882 320.853L305.462 316.853C305.462 316.853 302.474 285.805 299.179 271.081C295.883 256.357 293.762 207.223 292.859 203.685C291.956 200.147 288.947 182.127 288.947 182.127L251.432 184.058Z" fill="#263238"/>
<path d="M229.933 78.2224H182.179C179.767 78.2224 177.812 80.1777 177.812 82.5897V138.102C177.812 140.514 179.767 142.469 182.179 142.469H229.933C232.345 142.469 234.3 140.514 234.3 138.102V82.5897C234.3 80.1777 232.345 78.2224 229.933 78.2224Z" fill="#F59261" stroke="#263238" stroke-linecap="round" stroke-linejoin="round"/>
<path d="M218.328 92.3225H190.165V132.641H218.328V92.3225Z" fill="white"/>
<mask id="mask0_9458_15983" style="mask-type:luminance" maskUnits="userSpaceOnUse" x="190" y="92" width="29" height="41">
<path d="M218.328 92.3225H190.165V132.641H218.328V92.3225Z" fill="white"/>
</mask>
<g mask="url(#mask0_9458_15983)">
<path opacity="0.4" d="M218.328 92.3225H190.165V132.641H218.328V92.3225Z" fill="#F59261"/>
</g>
<path d="M218.328 92.3225H190.165V132.641H218.328V92.3225Z" stroke="#263238" stroke-linecap="round" stroke-linejoin="round"/>
<path d="M217.406 86.6279L189.787 92.1416L197.68 131.68L225.299 126.166L217.406 86.6279Z" fill="white" stroke="#263238" stroke-linecap="round" stroke-linejoin="round"/>
<path d="M191.853 91.5297C192.06 91.0305 192.411 90.6038 192.86 90.3034C193.309 90.003 193.837 89.8423 194.378 89.8416C195.1 89.8416 195.793 90.1285 196.304 90.6391C196.814 91.1498 197.101 91.8425 197.101 92.5647V98.2459C197.101 98.7274 196.91 99.1893 196.571 99.5304C196.231 99.8716 195.77 100.064 195.288 100.066C194.805 100.066 194.342 99.8744 194.001 99.533C193.66 99.1916 193.468 98.7286 193.468 98.2459V92.851C193.468 92.6251 193.558 92.4086 193.717 92.2489C193.877 92.0892 194.093 91.9995 194.319 91.9995C194.431 91.9995 194.542 92.0215 194.645 92.0643C194.748 92.1071 194.842 92.1698 194.921 92.2489C195 92.328 195.063 92.4218 195.106 92.5251C195.149 92.6284 195.171 92.7391 195.171 92.851V95.7502" stroke="#263238" stroke-width="1.5" stroke-linecap="round" stroke-linejoin="round"/>
<path d="M235.438 153.002C235.438 156.951 229.566 158.14 229.566 158.14C218.82 148.283 216.398 136.172 211.172 134.249C210.699 134.068 210.264 133.802 209.887 133.463C208.835 132.412 208.036 131.134 207.553 129.727L214.504 128.34C214.817 126.529 215.451 124.789 216.376 123.202C216.882 122.468 216.148 120.824 215.29 118.959C215.139 118.577 215.093 118.161 215.156 117.755C215.22 117.348 215.39 116.966 215.649 116.647C217.277 117.976 218.563 119.675 219.4 121.602C220.464 124.442 219.4 131.144 222.534 134.432C228.149 140.348 228.993 140.01 234.278 144.561C234.939 147.33 235.328 150.157 235.438 153.002Z" fill="white"/>
<mask id="mask1_9458_15983" style="mask-type:luminance" maskUnits="userSpaceOnUse" x="207" y="116" width="29" height="43">
<path d="M235.438 153.002C235.438 156.951 229.566 158.14 229.566 158.14C218.82 148.283 216.398 136.172 211.172 134.249C210.699 134.068 210.264 133.802 209.887 133.463C208.835 132.412 208.036 131.134 207.553 129.727L214.504 128.34C214.817 126.529 215.451 124.789 216.376 123.202C216.882 122.468 216.148 120.824 215.29 118.959C215.139 118.577 215.093 118.161 215.156 117.755C215.22 117.348 215.39 116.966 215.649 116.647C217.277 117.976 218.563 119.675 219.4 121.602C220.464 124.442 219.4 131.144 222.534 134.432C228.149 140.348 228.993 140.01 234.278 144.561C234.939 147.33 235.328 150.157 235.438 153.002Z" fill="white"/>
</mask>
<g mask="url(#mask1_9458_15983)">
<path opacity="0.4" d="M209.88 133.441C208.827 132.39 208.029 131.112 207.546 129.705L214.497 128.318C214.303 129.413 214.303 130.533 214.497 131.628C214.717 132.487 211.994 132.494 209.88 133.441Z" fill="#F59261"/>
</g>
<path d="M235.438 153.002C235.438 156.951 229.566 158.14 229.566 158.14C218.82 148.283 216.398 136.172 211.172 134.249C210.699 134.068 210.264 133.802 209.887 133.463C208.835 132.412 208.036 131.134 207.553 129.727L214.504 128.34C214.817 126.529 215.451 124.789 216.376 123.202C216.882 122.468 216.148 120.824 215.29 118.959C215.139 118.577 215.093 118.161 215.156 117.755C215.22 117.348 215.39 116.966 215.649 116.647C217.277 117.976 218.563 119.675 219.4 121.602C220.464 124.442 219.4 131.144 222.534 134.432C228.149 140.348 228.993 140.01 234.278 144.561C234.939 147.33 235.328 150.157 235.438 153.002Z" stroke="#263238" stroke-linecap="round" stroke-linejoin="round"/>
<path d="M254.815 123.187V148.936C254.815 148.936 251.468 152.239 247.835 155.718C243.952 159.44 239.761 163.359 238.946 163.675C237.397 164.277 234.3 161.906 234.3 161.906C232.56 163.065 230.813 160.599 230.813 160.599C229.074 162.383 227.327 159.388 229.463 156.291C231.599 153.193 234.3 144.547 234.3 144.547C234.425 144.416 234.576 144.312 234.742 144.241C234.909 144.17 235.088 144.134 235.269 144.134C235.45 144.134 235.629 144.17 235.795 144.241C235.962 144.312 236.112 144.416 236.238 144.547C236.238 144.547 249.56 125.705 254.815 123.187Z" fill="#F59261"/>
<mask id="mask2_9458_15983" style="mask-type:luminance" maskUnits="userSpaceOnUse" x="228" y="123" width="27" height="41">
<path d="M254.815 123.187V148.936C254.815 148.936 251.468 152.239 247.835 155.718C243.952 159.44 239.761 163.359 238.946 163.675C237.397 164.277 234.3 161.906 234.3 161.906C232.56 163.065 230.813 160.599 230.813 160.599C229.074 162.383 227.327 159.388 229.463 156.291C231.599 153.193 234.3 144.547 234.3 144.547C234.425 144.416 234.576 144.312 234.742 144.241C234.909 144.17 235.088 144.134 235.269 144.134C235.45 144.134 235.629 144.17 235.795 144.241C235.962 144.312 236.112 144.416 236.238 144.547C236.238 144.547 249.56 125.705 254.815 123.187Z" fill="white"/>
</mask>
<g mask="url(#mask2_9458_15983)">
<path opacity="0.2" d="M254.815 134.205V148.936C254.815 148.936 251.468 152.239 247.835 155.718C246.305 154.103 245.24 152.105 244.752 149.934C244.319 146.866 247.945 149.083 247.945 149.083C245.332 146.455 248.386 134.403 248.54 136.451C248.672 138.102 249.097 141.691 249.274 142.991C248.921 138.366 253.56 134.726 254.815 134.205Z" fill="black" fill-opacity="0.7"/>
</g>
<path d="M254.815 123.187V148.936C254.815 148.936 251.468 152.239 247.835 155.718C243.952 159.44 239.761 163.359 238.946 163.675C237.397 164.277 234.3 161.906 234.3 161.906C232.56 163.065 230.813 160.599 230.813 160.599C229.074 162.383 227.327 159.388 229.463 156.291C231.599 153.193 234.3 144.547 234.3 144.547C234.425 144.416 234.576 144.312 234.742 144.241C234.909 144.17 235.088 144.134 235.269 144.134C235.45 144.134 235.629 144.17 235.795 144.241C235.962 144.312 236.112 144.416 236.238 144.547C236.238 144.547 249.56 125.705 254.815 123.187Z" stroke="#263238" stroke-linecap="round" stroke-linejoin="round"/>
<path d="M290.436 183.992C291.868 186.319 252.459 187.317 249.743 185.46C249.417 185.245 249.142 184.962 248.936 184.631C247.703 182.627 249.743 179.647 249.743 179.647C249.743 179.647 249.398 138.667 254.815 123.187C260.043 122.614 265.301 122.369 270.56 122.453C274.076 122.505 277.966 122.703 281.988 123.187C284.924 123.51 288.491 124.112 292.037 124.773C297.96 125.888 303.781 127.195 306.049 127.709L307.084 127.951C307.084 127.951 289.005 181.672 290.436 183.992Z" fill="#F59261"/>
<mask id="mask3_9458_15983" style="mask-type:luminance" maskUnits="userSpaceOnUse" x="248" y="122" width="60" height="65">
<path d="M290.436 183.992C291.868 186.319 252.459 187.317 249.743 185.46C249.417 185.245 249.142 184.962 248.936 184.631C247.703 182.627 249.743 179.647 249.743 179.647C249.743 179.647 249.398 138.667 254.815 123.187C260.043 122.614 265.301 122.369 270.56 122.453C274.076 122.505 277.966 122.703 281.988 123.187C284.924 123.51 288.491 124.112 292.037 124.773C297.96 125.888 303.781 127.195 306.049 127.709L307.084 127.951C307.084 127.951 289.005 181.672 290.436 183.992Z" fill="white"/>
</mask>
<g mask="url(#mask3_9458_15983)">
<path opacity="0.2" d="M267.822 131.628C267.822 131.628 265.187 127.173 269.576 123.187C269.878 122.91 270.208 122.664 270.56 122.453C274.076 122.505 277.966 122.703 281.988 123.187C284.924 123.51 288.491 124.112 292.037 124.773L276.263 133.111L272.989 129.771L267.822 131.628Z" fill="black" fill-opacity="0.7"/>
<path opacity="0.2" d="M290.436 183.992C291.868 186.319 252.459 187.317 249.743 185.46C249.417 185.245 249.142 184.962 248.936 184.63C256.76 186.054 276.094 184.263 281.342 182.142C287.581 179.632 291.214 168.248 289.225 169.407C287.236 170.567 280.615 169.848 285.621 167.374C290.627 164.901 296.191 156.797 296.191 156.797C296.191 156.797 292.668 146.617 293.827 144.547C294.672 143.027 295.758 145.839 296.279 147.483C295.391 143.299 298.562 139.122 298.562 139.122L306.078 127.716L307.113 127.958C307.113 127.958 289.005 181.672 290.436 183.992Z" fill="black" fill-opacity="0.7"/>
</g>
<path d="M290.436 183.992C291.868 186.319 252.459 187.317 249.743 185.46C249.417 185.245 249.142 184.962 248.936 184.631C247.703 182.627 249.743 179.647 249.743 179.647C249.743 179.647 249.398 138.667 254.815 123.187C260.043 122.614 265.301 122.369 270.56 122.453C274.076 122.505 277.966 122.703 281.988 123.187C284.924 123.51 288.491 124.112 292.037 124.773C297.96 125.888 303.781 127.195 306.049 127.709L307.084 127.951C307.084 127.951 289.005 181.672 290.436 183.992Z" stroke="#263238" stroke-linecap="round" stroke-linejoin="round"/>
<path d="M288.234 123.87C288.234 123.87 273.554 129.742 268.761 123.606C269.579 123.652 270.395 123.492 271.134 123.139C271.873 122.786 272.511 122.252 272.989 121.587C273.743 120.42 274.152 119.064 274.171 117.675C274.236 116.375 274.152 115.073 273.921 113.792C273.356 110.35 287.809 112.574 287.809 112.574C287.809 112.574 284.704 122.138 288.234 123.87Z" fill="white" stroke="#263238" stroke-linecap="round" stroke-linejoin="round"/>
<path d="M279.544 116.31C279.544 116.31 277.019 120.662 272.989 121.587C273.743 120.42 274.153 119.064 274.171 117.675C276.901 116.882 279.544 116.31 279.544 116.31Z" fill="#263238"/>
<path d="M287.809 111.781C291.897 105.725 298.129 81.8264 278.025 86.4947C268.028 88.8141 269.319 101.909 269.319 101.909L265.877 106.173L268.725 108.588L268.607 111.429L269.576 111.774C269.576 111.774 268.725 118.681 269.576 119.114C271.132 119.906 281.357 118.659 281.357 116.178" fill="white"/>
<path d="M287.809 111.781C291.897 105.725 298.129 81.8264 278.025 86.4947C268.028 88.8141 269.319 101.909 269.319 101.909L265.877 106.173L268.725 108.588L268.607 111.429L269.576 111.774C269.576 111.774 268.725 118.681 269.576 119.114C271.132 119.906 281.357 118.659 281.357 116.178" stroke="#263238" stroke-linecap="round" stroke-linejoin="round"/>
<path d="M269.576 111.781C271.254 111.991 272.949 112.021 274.633 111.869C274.257 112.533 273.659 113.044 272.944 113.313C272.229 113.581 271.442 113.59 270.721 113.337" stroke="#263238" stroke-linecap="round" stroke-linejoin="round"/>
<path d="M271.022 96.6678C271.022 96.6678 274.435 96.3302 276.05 98.6276" stroke="#263238" stroke-linecap="round" stroke-linejoin="round"/>
<path d="M273.048 101.909C273.048 102.591 272.769 103.142 272.431 103.142C272.094 103.142 271.815 102.591 271.815 101.909C271.815 101.226 272.087 100.668 272.431 100.668C272.776 100.668 273.048 101.226 273.048 101.909Z" fill="#263238"/>
<path d="M294.026 90.1352C290.789 86.7955 276.931 81.8997 272.989 83.9182C267.205 86.1202 268.761 92.4399 268.761 92.4399L269.576 90.2379C269.576 90.2379 270.002 92.1023 272.989 93.2253V91.8307C274.878 92.6038 276.922 92.923 278.956 92.7629L278.325 91.8234C279.106 92.0009 279.873 92.2314 280.623 92.5133C278.421 96.6237 280.909 99.5304 280.909 99.5304V105.094C280.909 105.094 283.845 107.964 284.674 110.856C284.845 111.639 285.231 112.359 285.789 112.935C286.346 113.51 287.053 113.919 287.831 114.115C294.202 110.21 297.431 93.651 294.026 90.1352Z" fill="#263238"/>
<path d="M280.227 105.916C280.227 105.916 283.375 101.674 284.998 102.349C286.62 103.024 287.038 106.936 286.187 108.727C285.335 110.518 282.267 114.174 281.592 112.816" fill="white"/>
<path d="M280.227 105.916C280.227 105.916 283.375 101.674 284.998 102.349C286.62 103.024 287.038 106.936 286.187 108.727C285.335 110.518 282.267 114.174 281.592 112.816" stroke="#263238" stroke-linecap="round" stroke-linejoin="round"/>
<path d="M236.238 144.547C237.628 149.396 237.628 154.539 236.238 159.388" stroke="#263238" stroke-linecap="round" stroke-linejoin="round"/>
<path d="M230.813 160.599C230.813 160.599 233.749 156.1 234.3 153.002" stroke="#263238" stroke-linecap="round" stroke-linejoin="round"/>
<path d="M269.576 126.402L271.044 131.628C271.044 131.628 262.39 160.555 261.421 168.879L263.359 171.815L267.029 169.047C267.029 169.047 270.655 140.568 273.004 132.619L277.459 126.586L274.648 126.307L269.576 126.402Z" fill="#263238"/>
<path d="M271.837 121.587L273.54 125.125L288.22 121.587L292.022 124.773L276.035 131.628L273.525 126.608L268.747 129.969C268.747 129.969 265.231 122.108 271.837 121.587Z" fill="#F59261" stroke="#263238" stroke-linecap="round" stroke-linejoin="round"/>
<path d="M305.88 170.567C301.999 174.102 298.627 178.158 295.861 182.619C291.941 189.299 285.988 195.978 282.935 197.718C282.935 197.718 283.229 203.67 287.001 207.01C287.001 207.01 311.825 184.99 314.893 178.12C317.962 171.25 305.88 170.567 305.88 170.567Z" fill="white" stroke="#263238" stroke-linecap="round" stroke-linejoin="round"/>
<path d="M307.083 127.958C311.73 130.16 318.093 169.437 318.284 174.876C318.336 176.615 314.827 180.381 314.827 180.381C314.827 180.381 314.886 183.757 312.728 184.051C312.728 184.051 306.313 177.445 300.888 174.905C300.769 174.608 300.73 174.285 300.774 173.968C300.818 173.651 300.945 173.352 301.141 173.099C301.336 172.846 301.595 172.648 301.891 172.526C302.186 172.404 302.509 172.361 302.826 172.402L298.62 154.052C294.114 138.932 303.604 131.298 303.604 131.298" fill="#F59261"/>
<path d="M307.083 127.958C311.73 130.16 318.093 169.437 318.284 174.876C318.336 176.615 314.827 180.381 314.827 180.381C314.827 180.381 314.886 183.757 312.728 184.051C312.728 184.051 306.313 177.445 300.888 174.905C300.769 174.608 300.73 174.285 300.774 173.968C300.818 173.651 300.945 173.352 301.141 173.099C301.336 172.846 301.595 172.648 301.891 172.526C302.186 172.404 302.509 172.361 302.826 172.402L298.62 154.052C294.114 138.932 303.604 131.298 303.604 131.298" stroke="#263238" stroke-linecap="round" stroke-linejoin="round"/>
<path d="M302.826 172.409C302.826 172.409 309.212 172.894 312.698 178.12" stroke="#263238" stroke-linecap="round" stroke-linejoin="round"/>
<path d="M273.885 190.84C277.825 190.7 281.751 190.27 285.629 189.555L285.32 186.025C281.404 186.615 277.46 186.997 273.503 187.17C273.613 188.168 273.782 189.754 273.885 190.84Z" fill="#757575" stroke="#263238" stroke-linecap="round" stroke-linejoin="round"/>
<path d="M287.06 189.284C287.794 189.13 288.528 188.961 289.262 188.785L288.734 185.445C288.734 185.445 288.044 185.599 286.752 185.819L287.06 189.284Z" fill="#757575" stroke="#263238" stroke-linecap="round" stroke-linejoin="round"/>
<path d="M271.851 187.229C266.092 187.411 260.326 187.237 254.588 186.708L254.169 189.886C260.087 190.689 266.057 191.035 272.028 190.921L271.851 187.229Z" fill="#757575" stroke="#263238" stroke-linecap="round" stroke-linejoin="round"/>
<path d="M253.414 186.59L251.946 186.436L251.557 189.482C251.557 189.482 252.085 189.578 253.025 189.717L253.414 186.59Z" fill="#757575" stroke="#263238" stroke-linecap="round" stroke-linejoin="round"/>
<path d="M264.93 191.178L258.544 190.957L259.028 186.898L265.414 187.119L264.93 191.178Z" fill="#BFBFBF" stroke="#263238" stroke-linecap="round" stroke-linejoin="round"/>
<path d="M233.72 337.295H247.365L253.751 335.937L256.467 337.295H262.082" stroke="#263238" stroke-linecap="round" stroke-linejoin="round"/>
<path d="M291.016 337.295H306.408" stroke="#263238" stroke-linecap="round" stroke-linejoin="round"/>
<path d="M292.954 330.931C292.954 330.931 299.619 328.223 303.7 330.036" stroke="#263238" stroke-linecap="round" stroke-linejoin="round"/>
<path d="M278.501 141.376L289.225 142.469L286.715 153.729L281.048 154.448L276.263 151.41L277.444 142.469" stroke="#263238" stroke-linecap="round" stroke-linejoin="round"/>
<path d="M305.153 142.469C305.153 142.469 300.551 144.268 300.066 151.277" stroke="#263238" stroke-linecap="round" stroke-linejoin="round"/>
<path d="M247.945 138.484C247.945 138.484 248.466 145.949 250.676 149.986" stroke="#263238" stroke-linecap="round" stroke-linejoin="round"/>
<path d="M252.496 180.27C252.496 180.27 271.228 178.846 276.718 173.767" stroke="#263238" stroke-linecap="round" stroke-linejoin="round"/>
<path d="M294.84 146.866C294.84 146.866 296.015 151.549 298.334 153.002" stroke="#263238" stroke-linecap="round" stroke-linejoin="round"/>
<g opacity="0.2">
<path d="M260.57 196.059C260.57 196.059 260.328 209.689 261.392 211.399C262.456 213.11 263.088 213.433 263.088 213.433" stroke="white" stroke-linecap="round" stroke-linejoin="round"/>
<path d="M263.095 195.244C263.095 195.244 263.146 215.73 265.414 222.556" stroke="white" stroke-linecap="round" stroke-linejoin="round"/>
<path d="M281.342 193.776C281.342 193.776 281.585 204.603 289.225 209.352" stroke="white" stroke-linecap="round" stroke-linejoin="round"/>
<path d="M291.501 205.917C291.501 205.917 291.794 217.176 291.501 219.496C291.207 221.815 293.101 232.766 293.101 237.31C293.101 241.853 294.694 248.973 294.694 250.566" stroke="white" stroke-linecap="round" stroke-linejoin="round"/>
<path d="M266.097 226.072C266.097 226.072 277.21 229.661 279.566 229.236" stroke="white" stroke-linecap="round" stroke-linejoin="round"/>
<path d="M266.097 228.48C264.937 227.481 256.078 231.922 254.918 231.416" stroke="white" stroke-linecap="round" stroke-linejoin="round"/>
<path d="M266.097 231.482C265.803 231.981 257.091 244.092 255.931 242.756" stroke="white" stroke-linecap="round" stroke-linejoin="round"/>
<path d="M267.55 229.911C267.55 229.911 276.769 239.101 279.566 240.113" stroke="white" stroke-linecap="round" stroke-linejoin="round"/>
<path d="M292.954 319.65C292.954 319.65 299.633 313.521 300.36 312.244C301.087 310.967 293.974 309.513 293.974 309.513" stroke="white" stroke-linecap="round" stroke-linejoin="round"/>
<path d="M294.694 323.012C294.694 323.012 299.634 321.265 302.827 322.799" stroke="white" stroke-linecap="round" stroke-linejoin="round"/>
<path d="M253.318 316.538C253.318 316.538 259.704 312.603 259.564 310.262" stroke="white" stroke-linecap="round" stroke-linejoin="round"/>
<path d="M262.075 318.079C262.075 318.079 254.625 322.19 252.445 322.167C250.265 322.145 258.397 325.192 260.431 324.759" stroke="white" stroke-linecap="round" stroke-linejoin="round"/>
</g>
<path d="M199.897 119.018L210.878 116.831" stroke="#263238" stroke-linecap="round" stroke-linejoin="round"/>
<path d="M199.376 116.222L218.497 112.405" stroke="#263238" stroke-linecap="round" stroke-linejoin="round"/>
<path d="M198.863 113.425L217.976 109.608" stroke="#263238" stroke-linecap="round" stroke-linejoin="round"/>
<path d="M198.341 110.629L217.455 106.812" stroke="#263238" stroke-linecap="round" stroke-linejoin="round"/>
<path d="M197.82 107.825L216.934 104.008" stroke="#263238" stroke-linecap="round" stroke-linejoin="round"/>
<path d="M197.299 105.028L216.413 101.211" stroke="#263238" stroke-linecap="round" stroke-linejoin="round"/>
<path d="M196.778 102.232L215.891 98.4148" stroke="#263238" stroke-linecap="round" stroke-linejoin="round"/>
<path d="M201.358 98.4147L215.37 95.6182" stroke="#263238" stroke-linecap="round" stroke-linejoin="round"/>
<path d="M30.9307 338.844H338.844" stroke="#263238" stroke-linecap="round" stroke-linejoin="round"/>
</g>
<defs>
<clipPath id="clip0_9458_15983">
<rect width="367" height="339" fill="white"/>
</clipPath>
</defs>
</svg>
