<svg width="353" height="357" viewBox="0 0 353 357" fill="none" xmlns="http://www.w3.org/2000/svg">
<path d="M162.631 349.652C166.112 349.652 168.935 346.812 168.935 343.31C168.935 339.808 166.112 336.969 162.631 336.969C159.149 336.969 156.327 339.808 156.327 343.31C156.327 346.812 159.149 349.652 162.631 349.652Z" fill="#D7E0DD"/>
<path d="M309.444 95.2824C311.717 95.2824 313.56 93.4283 313.56 91.1412C313.56 88.8541 311.717 87 309.444 87C307.17 87 305.327 88.8541 305.327 91.1412C305.327 93.4283 307.17 95.2824 309.444 95.2824Z" fill="#D7E0DD"/>
<path d="M21.0322 105.95C24.2127 105.95 26.7911 103.356 26.7911 100.157C26.7911 96.957 24.2127 94.3633 21.0322 94.3633C17.8517 94.3633 15.2734 96.957 15.2734 100.157C15.2734 103.356 17.8517 105.95 21.0322 105.95Z" fill="#D7E0DD"/>
<path d="M58.796 339.466C58.796 337.458 57.1833 335.836 55.1876 335.836C53.1919 335.836 51.5791 337.458 51.5791 339.466C51.5791 341.474 53.1919 343.096 55.1876 343.096C57.1833 343.096 58.796 341.474 58.796 339.466Z" fill="#D7E0DD"/>
<path d="M351 272.734C351 273.92 350.042 274.883 348.864 274.883C347.686 274.883 346.729 273.92 346.729 272.734C346.729 271.549 347.686 270.586 348.864 270.586C350.042 270.586 351 271.549 351 272.734Z" fill="#AABC95"/>
<path fill-rule="evenodd" clip-rule="evenodd" d="M66.0744 73.7959C62.4813 65.5233 58.3899 58.2937 50.5204 54.3219C44.6043 51.337 36.6705 50.8796 29.7496 48.8496C28.0615 48.3521 26.4539 47.7824 24.8945 47.1405C24.4122 46.9479 23.8977 46.6751 23.3672 46.6911C23.8575 47.7262 24.8623 48.3521 25.6179 49.1143C27.8927 51.4333 29.8782 53.9849 32.362 56.2958C35.4487 59.1603 39.0579 61.9847 43.2378 63.9265C50.3838 67.2404 60.8335 68.1551 64.724 74.9674C65.2947 75.9624 65.8494 77.2622 65.986 78.2893C66.1548 79.5812 65.9378 81.0415 65.986 82.4216C65.9941 82.7105 65.761 83.4166 66.2593 83.4968C66.8863 83.7536 66.6612 83.216 66.7979 82.9592C68.5502 79.6774 70.9858 76.9092 73.9921 74.7026C75.5998 73.5151 77.2637 72.4318 78.8472 71.2924C80.4468 70.137 81.8857 68.9414 83.3406 67.6095C86.3148 64.8894 88.5655 61.8804 90.35 58.1894C92.0782 54.6188 93.9109 50.8636 95.39 46.7874C94.5138 46.8356 94.0797 47.9348 93.501 48.5848C90.6152 51.8104 87.0221 54.8675 83.3406 57.4672C81.8375 58.5344 80.262 59.4492 78.8472 60.6046C76.0821 62.8754 73.7429 65.8041 71.7414 68.7729C69.6675 71.8461 68.1242 75.3526 67.0631 79.3645C67.0069 77.2622 67.023 74.6063 66.9747 72.2714C66.9587 71.485 66.7738 70.5623 66.8863 69.9364C66.9747 69.4309 67.9634 68.2353 68.502 67.5132C72.5131 62.2014 78.5257 58.5505 81.9902 52.8856C85.1733 47.67 86.5157 41.628 87.834 34.6633C88.252 32.4728 88.8147 30.2822 89.096 27.9312C88.2761 28.2923 87.9305 29.3675 87.4803 30.1779C86.1058 32.6493 84.8679 35.0244 83.1638 37.3593C81.0176 40.3041 78.0916 42.5508 75.8811 45.4394C73.6063 48.4002 72.0388 51.8425 70.5759 55.4934C69.137 59.072 67.8027 62.9075 66.621 66.8873C66.1468 64.2795 65.4233 61.76 64.7321 59.2566C64.0006 56.6087 63.6388 53.9688 63.1164 51.361C62.0955 46.2739 60.4959 41.4756 58.2613 37.2711C54.4672 30.1217 48.8404 24.505 44.1461 18.0618C43.4709 17.131 42.8841 16.0638 42.0802 15.3738C42.0159 15.2936 41.9195 15.2374 41.815 15.1973C41.7426 15.2133 41.7266 15.2855 41.6381 15.2855C42.0401 18.3587 42.5867 21.3115 43.1654 24.168C43.7683 27.1288 44.1139 30.0495 44.7811 32.8739C45.4483 35.6903 46.2843 38.2901 47.5704 40.5047C48.8243 42.6631 50.3275 44.5086 52.0638 46.3381C58.8561 53.4794 65.8654 60.4602 66.0905 73.7959H66.0744Z" fill="#07A587"/>
<path fill-rule="evenodd" clip-rule="evenodd" d="M75.0696 20.4851H74.8044C70.7129 30.2582 62.8515 36.8378 58.6153 46.7794C56.5254 51.6981 55.1106 57.9969 55.1106 64.5524C55.1106 71.124 56.4128 77.487 57.3613 83.4888C56.6459 82.6945 56.1476 81.7798 55.5608 80.8891C54.9659 79.9824 54.3711 79.0516 53.9451 77.9283C53.0689 75.6575 52.9242 72.9374 52.5947 70.121C52.2731 67.3688 51.9275 64.6808 51.0674 62.4903C50.2234 60.3479 49.1061 58.4542 47.828 56.6569C45.2879 53.0782 42.4263 49.7724 39.645 46.5147C37.1773 43.626 34.806 40.7856 32.2739 37.897C31.9846 37.568 31.6148 37.0224 31.1084 36.9983C31.4621 38.1297 32.065 39.1086 32.5472 40.2319C33.9459 43.4656 34.7497 47.3812 35.6018 51.1846C36.2127 53.8806 36.5423 56.5044 37.1291 58.9918C38.2303 63.6537 41.1723 67.5453 43.8732 70.8351C46.6303 74.1972 50.0626 77.0456 53.4065 79.9022C54.6766 80.9854 55.7858 82.1408 56.8228 83.4888C57.1363 83.8981 57.297 84.5239 57.8999 84.6523C57.7311 81.2261 57.6266 78.0246 57.9883 75.0477C58.7118 69.1662 61.485 64.8172 63.7437 60.3318C67.1278 53.6078 70.4798 46.7393 72.3768 38.4346C73.6469 32.8981 74.1452 27.0005 75.0696 20.7499V20.4771V20.4851Z" fill="#07C1A1"/>
<path d="M56.9991 110.417C47.3854 107.151 46.3002 95.3723 45.9385 82.863H81.8132C81.9257 82.8951 81.9981 82.9754 81.9901 83.1278C81.6766 95.2038 80.511 106.421 71.8297 110.144C71.7574 110.794 71.6931 111.444 71.5484 112.03H57.2644C57.176 111.492 57.0875 110.955 56.9991 110.417Z" fill="#807FBA"/>
<path d="M113.243 112.262H12.4512V328.579H113.243V112.262Z" fill="#D6D6EA"/>
<path d="M113.251 112.262H37V328.579H113.251V112.262Z" fill="#EDEDF7"/>
<path d="M108.894 229.636H41.3408V258.426H108.894V229.636Z" fill="#D6D6EA"/>
<path fill-rule="evenodd" clip-rule="evenodd" d="M82.5527 244.224C82.5527 245.243 81.7248 246.069 80.7039 246.069H69.8603C68.8394 246.069 68.0195 245.243 68.0195 244.224C68.0195 243.205 68.8475 242.378 69.8603 242.378H80.7039C81.7248 242.378 82.5527 243.205 82.5527 244.224Z" fill="#807FBA"/>
<path d="M108.894 262.679H41.3408V291.469H108.894V262.679Z" fill="#D6D6EA"/>
<path fill-rule="evenodd" clip-rule="evenodd" d="M82.5527 277.266C82.5527 278.285 81.7248 279.112 80.7039 279.112H69.8603C68.8394 279.112 68.0195 278.285 68.0195 277.266C68.0195 276.247 68.8475 275.421 69.8603 275.421H80.7039C81.7248 275.421 82.5527 276.247 82.5527 277.266Z" fill="#807FBA"/>
<path d="M108.894 295.424H41.3408V324.222H108.894V295.424Z" fill="#D6D6EA"/>
<path fill-rule="evenodd" clip-rule="evenodd" d="M82.5527 310.012C82.5527 311.031 81.7248 311.857 80.7039 311.857H69.8603C68.8394 311.857 68.0195 311.031 68.0195 310.012C68.0195 308.993 68.8475 308.174 69.8603 308.174H80.7039C81.7248 308.174 82.5527 309.001 82.5527 310.012Z" fill="#807FBA"/>
<path d="M108.894 116.796H41.3408V168.775H108.894V116.796Z" fill="#D6D6EA"/>
<g opacity="0.68">
<path d="M100.695 148.651H52.1201C51.179 148.651 50.416 149.412 50.416 150.352V166.865C50.416 167.804 51.179 168.566 52.1201 168.566H100.695C101.636 168.566 102.399 167.804 102.399 166.865V150.352C102.399 149.412 101.636 148.651 100.695 148.651Z" fill="#7372AF"/>
<path d="M52.1279 148.651H68.3009C69.2414 148.651 70.005 149.413 70.005 150.352V166.857C70.005 167.796 69.2414 168.558 68.3009 168.558H52.1279C51.1875 168.558 50.4238 167.796 50.4238 166.857V150.352C50.4238 149.413 51.1875 148.651 52.1279 148.651Z" fill="#807FBA"/>
<path d="M55.3513 157.068H63.5825C64.523 157.068 65.2947 157.83 65.2947 158.777V162.026C65.2947 162.965 64.531 163.727 63.5906 163.727H55.3594C54.4189 163.727 53.6553 162.965 53.6553 162.026V158.769C53.6553 157.83 54.4189 157.068 55.3594 157.068H55.3513Z" fill="#F8F8F8"/>
<path d="M49.3471 147.006H103.42C103.79 147.006 104.096 147.311 104.096 147.68V150.994C104.096 151.363 103.79 151.668 103.42 151.668H49.3471C48.9773 151.668 48.6719 151.363 48.6719 150.994V147.68C48.6719 147.311 48.9773 147.006 49.3471 147.006Z" fill="#5F5999"/>
<path d="M58.2209 131.913H95.0281C95.7435 131.913 96.3223 132.491 96.3223 133.205V145.706C96.3223 146.42 95.7435 146.998 95.0281 146.998H58.2209C57.5055 146.998 56.9268 146.42 56.9268 145.706V133.197C56.9268 132.483 57.5055 131.905 58.2209 131.905V131.913Z" fill="#7372AF"/>
<path d="M58.2211 131.913H70.4714C71.1869 131.913 71.7656 132.491 71.7656 133.205V145.714C71.7656 146.428 71.1869 147.006 70.4714 147.006H58.2131C57.4977 147.006 56.9189 146.428 56.9189 145.714V133.205C56.9189 132.491 57.4977 131.913 58.2131 131.913H58.2211Z" fill="#807FBA"/>
<path d="M60.6653 138.292H66.9029C67.6183 138.292 68.1971 138.869 68.1971 139.584V142.047C68.1971 142.761 67.6183 143.339 66.9029 143.339H60.6653C59.9498 143.339 59.3711 142.761 59.3711 142.047V139.584C59.3711 138.869 59.9498 138.292 60.6653 138.292Z" fill="#F8F8F8"/>
<path d="M56.115 130.661H97.0941C97.3754 130.661 97.6085 130.894 97.6085 131.175V133.686C97.6085 133.967 97.3754 134.2 97.0941 134.2H56.115C55.8337 134.2 55.6006 133.967 55.6006 133.686V131.175C55.6006 130.894 55.8337 130.661 56.115 130.661Z" fill="#5F5999"/>
</g>
<path d="M108.894 173.501H41.3408V225.48H108.894V173.501Z" fill="#D6D6EA"/>
<path d="M101.837 213.99L80.4229 204.241L80.8248 213.067L100.961 217.914L101.837 213.99Z" fill="#D1D1E8"/>
<path d="M88.8473 214.568C85.8731 214.046 83.1321 213.276 80.793 212.353L80.8251 213.075L100.961 217.922L101.676 214.72C98.3807 215.434 93.7908 215.434 88.8473 214.576" fill="#F8F8F8"/>
<path d="M81.2993 203.102L52.1445 203.182L81.2912 204.642L102.737 214.439L102.986 213.605L81.2993 203.102Z" fill="#7372AF"/>
<path d="M73.9688 212.995L101.5 218.885L102.022 217.841L74.8047 211.519L73.9688 212.995Z" fill="#7372AF"/>
<path d="M51.9032 203.009L51.8721 214.146L81.2679 214.228L81.299 203.091L51.9032 203.009Z" fill="#7372AF"/>
<path d="M59.6521 208.092C59.6521 206.504 58.2454 205.22 56.5011 205.212C54.7568 205.212 53.334 206.487 53.334 208.076C53.334 209.665 54.7407 210.949 56.485 210.957C58.2293 210.957 59.644 209.681 59.6521 208.092Z" fill="#F8F8F8"/>
<path d="M58.6877 208.06C58.6877 207.017 57.7151 206.167 56.5013 206.167C55.2875 206.167 54.3069 207.009 54.2988 208.052C54.2988 209.095 55.2795 209.946 56.4852 209.954C57.691 209.954 58.6797 209.111 58.6797 208.068" fill="#D1D1E8"/>
<path d="M61.8063 206.399L61.7822 210.516L64.1535 210.54L67.0392 206.239L61.8063 206.399Z" fill="#D1D1E8"/>
<path d="M67.0391 206.239L64.1533 210.54L69.4988 210.596L72.5292 206.086L67.0391 206.239Z" fill="#F8F8F8"/>
<path d="M77.3444 205.942L72.5294 206.086L69.499 210.596L77.2961 210.668L77.3444 205.942Z" fill="#D1D1E8"/>
<path d="M103.107 219.647L77.2314 214.832L77.6735 224.212L102.046 224.934L103.107 219.647Z" fill="#D1D1E8"/>
<path d="M87.1026 222.824C83.6381 222.591 80.3907 222.07 77.5371 221.348L77.6738 224.212L102.046 224.934L102.745 221.468C98.7822 222.68 93.2117 223.233 87.1026 222.816" fill="#F8F8F8"/>
<path d="M78.1962 213.621L46.0352 213.701L78.1962 215.177L104.28 219.911L104.505 219.31L78.1962 213.621Z" fill="#5F5999"/>
<path d="M70.0137 225.432L103.75 225.528V224.742L70.9381 223.867L70.0137 225.432Z" fill="#5F5999"/>
<path d="M45.7743 213.515L45.7412 225.35L78.1674 225.44L78.2005 213.605L45.7743 213.515Z" fill="#5F5999"/>
<path d="M54.5799 219.302C54.596 217.713 53.1973 216.413 51.453 216.397C49.7087 216.373 48.2779 217.649 48.2619 219.23C48.2458 220.818 49.6444 222.118 51.3887 222.142C53.133 222.158 54.5639 220.89 54.588 219.302" fill="#F8F8F8"/>
<path d="M53.615 219.254C53.6311 218.211 52.6424 217.352 51.4206 217.336C50.1988 217.32 49.194 218.154 49.1779 219.206C49.1619 220.249 50.1425 221.107 51.3724 221.123C52.5942 221.139 53.599 220.305 53.615 219.254Z" fill="#D1D1E8"/>
<path d="M73.3735 221.388L73.3976 217.272L71.0264 217.248L68.1406 221.54L73.3735 221.388Z" fill="#D1D1E8"/>
<path d="M68.1407 221.54L71.0265 217.248L65.681 217.191L62.6426 221.701L68.1407 221.54Z" fill="#F8F8F8"/>
<path d="M57.8359 221.837L62.6428 221.701L65.6813 217.191L57.8842 217.119L57.8359 221.837Z" fill="#D1D1E8"/>
<path d="M345.074 198.415V201.127C345.074 205.027 341.907 208.196 337.993 208.196H136.498C132.583 208.196 129.416 205.027 129.416 201.127V198.415H345.074Z" fill="#807FBA"/>
<path d="M129.416 60.4118C129.416 56.5042 132.583 53.3428 136.498 53.3428H337.993C341.907 53.3428 345.074 56.5042 345.074 60.4118V198.415H129.416V60.4118Z" fill="#D6D6EA"/>
<path d="M339.504 198.383V65.459C339.504 61.76 336.498 58.759 332.784 58.759H141.69C137.977 58.759 134.979 61.76 134.979 65.459V198.383H339.504Z" fill="#EDEDF7"/>
<path d="M164.986 88.6078C163.845 88.6399 163.837 90.4132 164.986 90.3811C166.272 90.341 167.566 90.2929 168.852 90.2527C170.082 104.455 170.629 118.706 170.476 132.964C170.468 133.863 170.436 134.761 170.42 135.652C170.139 135.917 169.865 136.19 169.584 136.454C168.909 137.112 169.64 138.051 170.372 137.939C170.299 141.277 170.203 144.607 170.05 147.945C170.002 149.084 171.778 149.084 171.827 147.945C171.995 144.101 172.108 140.258 172.18 136.414L214.574 95.4442C216.969 93.1333 219.357 90.8224 221.752 88.5035C223.392 88.4474 225.04 88.3992 226.68 88.343C227.821 88.311 227.829 86.5296 226.68 86.5698C225.667 86.6019 224.662 86.634 223.649 86.6661L227.017 83.4083C227.837 82.614 226.583 81.3542 225.755 82.1566L220.997 86.7543C206.906 87.2197 192.814 87.6851 178.731 88.1424C175.974 88.2307 173.217 88.327 170.468 88.4153C170.235 85.8075 169.978 83.1917 169.688 80.5919C169.568 79.4686 167.791 79.4526 167.912 80.5919C168.193 83.2158 168.451 85.8476 168.684 88.4795C167.446 88.5196 166.208 88.5597 164.97 88.5998M219.116 88.5998L182.043 124.427C178.772 127.588 175.508 130.741 172.237 133.903C172.405 121.097 172.028 108.29 171.071 95.5164C171.055 95.2677 171.031 95.0189 171.007 94.7702C171.095 94.8023 171.176 94.8264 171.272 94.8264C173.523 94.8825 175.773 94.9387 178.032 94.9949C178.514 95.0029 178.916 94.5776 178.916 94.1042C178.916 94.0079 178.892 93.9197 178.86 93.8314C178.892 93.7512 178.916 93.6629 178.916 93.5666V89.9157C190.25 89.5386 201.592 89.1695 212.926 88.7924L219.116 88.5918V88.5998ZM177.14 89.9799V93.2055C175.187 93.1574 173.233 93.1093 171.272 93.0611C171.127 93.0611 170.999 93.1012 170.87 93.1654C170.79 92.1785 170.709 91.1835 170.621 90.1966C172.791 90.1244 174.962 90.0521 177.132 89.9799" fill="#D6D6EA"/>
<path d="M153.66 113.739C153.812 111.211 154.174 108.708 154.721 106.252C155.734 105.996 156.746 105.739 157.759 105.482C158.298 107.103 158.885 108.716 159.528 110.305C159.712 110.754 160.122 111.059 160.621 110.922C161.047 110.81 161.425 110.272 161.24 109.831C160.589 108.234 160.002 106.614 159.455 104.985C159.737 104.768 159.905 104.383 159.793 104.038C159.664 103.653 159.327 103.412 158.941 103.404C158.346 101.478 157.815 99.5284 157.365 97.5626C157.14 96.5756 155.774 96.8404 155.645 97.691C155.541 97.7792 155.452 97.8916 155.388 98.044C154.504 100.251 153.788 102.505 153.234 104.8C153.145 104.824 153.057 104.84 152.968 104.864C152.518 104.977 152.205 105.506 152.349 105.956C152.43 106.212 152.623 106.405 152.848 106.509C152.357 108.892 152.028 111.308 151.875 113.739C151.803 114.878 153.579 114.878 153.652 113.739M156.312 100.652C156.594 101.703 156.891 102.746 157.213 103.789C156.537 103.958 155.87 104.126 155.195 104.303C155.525 103.075 155.894 101.855 156.312 100.66" fill="#D6D6EA"/>
<path d="M191.431 73.0976C191.954 76.4997 192.484 79.8938 193.007 83.296C193.079 83.7694 193.674 84.0342 194.1 83.9138C194.116 83.9138 194.116 83.9058 194.132 83.8978C194.132 83.9299 194.132 83.962 194.132 83.9941C194.269 84.4996 194.751 84.6921 195.225 84.6119C197.163 84.307 199.108 83.288 199.904 81.4104C200.675 79.5889 200.137 77.3743 198.216 76.5559C198.127 76.5158 198.031 76.4837 197.934 76.4516C198.376 75.5128 198.473 74.3975 198.183 73.4105C197.693 71.7415 196.166 70.6984 194.462 70.5861C193.578 70.5299 192.637 70.7707 191.914 71.2922C191.576 71.541 191.383 71.9742 191.544 72.3754C191.423 72.576 191.375 72.8328 191.415 73.0896M193.312 72.5359C193.312 72.5359 193.32 72.5359 193.328 72.5359C193.385 72.5199 193.433 72.5038 193.489 72.4798C193.626 72.4316 193.77 72.4075 193.915 72.3754C193.931 72.3754 193.915 72.3754 193.931 72.3754C193.931 72.3754 193.931 72.3754 193.947 72.3754C194.028 72.3754 194.108 72.3594 194.18 72.3594C194.325 72.3594 194.47 72.3594 194.623 72.3754C194.623 72.3754 194.631 72.3754 194.639 72.3754C194.663 72.3754 194.679 72.3754 194.687 72.3835C194.759 72.3995 194.84 72.4156 194.92 72.4396C194.984 72.4557 195.049 72.4717 195.113 72.4958C195.129 72.4958 195.185 72.5199 195.233 72.5359C195.25 72.5439 195.346 72.5921 195.37 72.6001C195.45 72.6402 195.531 72.6803 195.603 72.7285C195.659 72.7686 195.716 72.8007 195.772 72.8408C195.788 72.8489 195.804 72.8569 195.82 72.8729C195.82 72.8729 195.82 72.8729 195.836 72.889C195.941 72.9853 196.045 73.0896 196.142 73.2019C196.15 73.2099 196.166 73.234 196.182 73.2581C196.214 73.3223 196.254 73.3784 196.286 73.4346C196.319 73.4908 196.351 73.555 196.383 73.6111C196.399 73.6352 196.407 73.6673 196.423 73.6914C196.423 73.6914 196.423 73.6914 196.423 73.7074C196.463 73.8438 196.512 73.9802 196.544 74.1247C196.544 74.1407 196.56 74.1969 196.568 74.229C196.568 74.237 196.568 74.245 196.568 74.253C196.568 74.3092 196.576 74.3654 196.584 74.4215C196.584 74.5579 196.584 74.6944 196.584 74.8227C196.584 74.8709 196.576 74.911 196.576 74.9591C196.576 74.9672 196.576 74.9672 196.576 74.9752C196.568 75.0314 196.552 75.0795 196.544 75.1276C196.512 75.2881 196.455 75.4486 196.399 75.6091C196.383 75.6412 196.367 75.6893 196.359 75.6973C196.327 75.7696 196.286 75.8337 196.246 75.906C196.206 75.9782 196.15 76.0504 196.102 76.1226C196.085 76.1467 196.069 76.1627 196.045 76.1868C195.925 76.3232 195.796 76.4436 195.651 76.5559C195.643 76.5559 195.643 76.5719 195.635 76.58C195.539 76.6281 195.45 76.6763 195.354 76.7404C194.96 77.0133 194.783 77.5188 195.032 77.9521C195.266 78.3452 195.852 78.5378 196.246 78.273C196.319 78.2249 196.391 78.1848 196.463 78.1446C196.479 78.1446 196.632 78.0804 196.664 78.0724C196.688 78.0724 196.777 78.0564 196.801 78.0564C196.881 78.0564 196.962 78.0564 197.05 78.0564C197.082 78.0564 197.082 78.0564 197.098 78.0564C197.13 78.0564 197.171 78.0644 197.203 78.0804C197.283 78.0965 197.356 78.1206 197.428 78.1446C197.46 78.1527 197.492 78.1687 197.532 78.1767C197.54 78.1767 197.548 78.1848 197.589 78.2008C197.661 78.2409 197.733 78.281 197.798 78.3212C197.838 78.3452 197.878 78.3693 197.91 78.4014C197.918 78.4094 197.918 78.4094 197.934 78.4255C198.015 78.4977 198.087 78.5779 198.159 78.6501C198.183 78.6742 198.183 78.6742 198.192 78.6822C198.192 78.6903 198.192 78.6983 198.208 78.7224C198.264 78.8186 198.32 78.9149 198.368 79.0112C198.32 78.8989 198.425 79.1958 198.433 79.2279C198.457 79.3161 198.481 79.4044 198.489 79.4927C198.465 79.3402 198.489 79.6772 198.489 79.7093C198.489 79.8136 198.489 79.9259 198.473 80.0303C198.465 80.0864 198.449 80.1506 198.441 80.2068C198.417 80.3271 198.376 80.4475 198.336 80.5679C198.336 80.5679 198.28 80.7043 198.272 80.7283C198.224 80.8326 198.167 80.937 198.111 81.0332C197.918 81.3702 197.645 81.6752 197.315 81.9239C196.592 82.4695 195.716 82.7423 194.751 82.8948C194.735 82.8948 194.727 82.9108 194.711 82.9108C194.711 82.8787 194.711 82.8466 194.711 82.8146C194.188 79.4124 193.658 76.0183 193.135 72.6162C193.152 72.6081 193.168 72.5921 193.184 72.5841C193.2 72.5841 193.256 72.5439 193.296 72.5279" fill="#D6D6EA"/>
<path d="M205.53 128.519C206.487 129.08 207.644 129.273 208.722 128.976C209.188 128.848 209.469 128.342 209.341 127.885C209.212 127.42 208.714 127.139 208.247 127.267C208.151 127.291 208.062 127.315 207.966 127.331C207.942 127.331 207.765 127.347 207.733 127.347C207.62 127.347 207.508 127.347 207.395 127.331C207.395 127.331 207.395 127.331 207.379 127.331C207.323 127.323 207.267 127.315 207.218 127.299C207.114 127.275 207.001 127.243 206.897 127.211C206.841 127.195 206.792 127.171 206.736 127.155C206.728 127.155 206.728 127.155 206.712 127.147C206.511 127.05 206.318 126.938 206.125 126.81C206.101 126.794 206.101 126.794 206.093 126.786C206.053 126.754 206.013 126.721 205.973 126.681C205.884 126.609 205.812 126.529 205.731 126.449C205.675 126.384 205.619 126.328 205.563 126.256C205.659 126.384 205.474 126.12 205.458 126.096C205.394 125.999 205.346 125.903 205.297 125.807C205.281 125.767 205.273 125.759 205.265 125.743C205.249 125.702 205.233 125.67 205.225 125.63C205.193 125.526 205.161 125.422 205.137 125.309C205.137 125.269 205.12 125.237 205.112 125.197C205.112 125.189 205.112 125.173 205.112 125.125V124.78C205.112 124.732 205.112 124.699 205.112 124.699C205.112 124.659 205.128 124.627 205.128 124.595C205.153 124.483 205.185 124.37 205.217 124.266C205.233 124.226 205.249 124.186 205.265 124.138C205.265 124.122 205.273 124.114 205.297 124.082C205.53 123.64 205.619 123.496 205.997 123.167C206.037 123.135 206.077 123.095 206.117 123.063C206.125 123.063 206.133 123.055 206.157 123.038C206.254 122.974 206.35 122.91 206.447 122.854C206.543 122.798 206.648 122.742 206.752 122.693C206.608 122.758 206.913 122.637 206.945 122.629C207.339 122.509 207.685 122.485 208.006 122.549C208.472 122.645 208.963 122.413 209.099 121.931C209.22 121.49 208.955 120.936 208.48 120.84C206.423 120.431 204.381 121.642 203.601 123.56C202.83 125.454 203.802 127.54 205.506 128.527" fill="#D6D6EA"/>
<path d="M285.68 163.736L284.917 163.896C281.838 151.098 278.759 138.3 275.681 125.51L276.123 125.438C277.401 125.237 277.079 123.255 275.809 123.464L275.215 123.56C275.03 122.782 274.845 122.011 274.652 121.233C274.354 119.989 272.369 120.294 272.674 121.546C272.859 122.324 273.044 123.103 273.237 123.873L226.077 131.399C226.012 130.814 225.94 130.22 225.884 129.634C225.747 128.35 223.77 128.671 223.898 129.947C223.963 130.533 224.027 131.118 224.091 131.712L219.509 132.442C218.231 132.643 218.545 134.625 219.823 134.416L224.308 133.702C225.844 147.511 227.926 161.256 230.546 174.905C229.782 175.057 229.011 175.218 228.247 175.37C226.985 175.627 227.299 177.609 228.561 177.344C229.348 177.184 230.144 177.023 230.932 176.863C231.125 177.85 231.31 178.837 231.511 179.816C231.76 181.075 233.745 180.762 233.488 179.503C233.287 178.492 233.086 177.481 232.893 176.462C249.733 173.051 266.573 169.641 283.422 166.223C283.518 166.616 283.615 167.017 283.711 167.411C284.008 168.654 285.994 168.349 285.688 167.098C285.584 166.672 285.487 166.255 285.383 165.83C285.592 165.79 285.793 165.75 286.002 165.71C287.264 165.453 286.95 163.471 285.688 163.728M232.507 174.512C229.887 160.895 227.813 147.174 226.286 133.397L273.695 125.831C276.782 138.653 279.861 151.475 282.947 164.297C266.131 167.707 249.323 171.11 232.507 174.52" fill="#D6D6EA"/>
<path d="M303.743 129.931C303.518 132.619 303.292 135.299 303.067 137.987C302.69 138.204 302.312 138.42 301.934 138.637C301.468 138.91 301.203 139.439 301.436 139.961C301.645 140.418 302.296 140.731 302.762 140.458C302.794 140.442 302.826 140.418 302.858 140.402C302.73 141.967 302.593 143.531 302.465 145.104C302.352 146.388 304.354 146.613 304.458 145.329C304.627 143.283 304.804 141.245 304.972 139.199C306.042 138.581 307.119 137.971 308.188 137.361C308.799 138.468 309.41 139.576 310.021 140.683C310.639 141.798 312.472 140.988 311.845 139.848C311.154 138.597 310.463 137.345 309.779 136.085C309.844 135.877 309.844 135.652 309.739 135.427C309.627 135.179 309.385 134.994 309.12 134.898C307.987 132.844 306.853 130.781 305.72 128.727C305.109 127.62 303.333 128.398 303.879 129.514C303.807 129.634 303.759 129.77 303.743 129.947M307.223 135.604C306.54 135.997 305.857 136.382 305.181 136.775C305.302 135.363 305.423 133.943 305.535 132.531C306.098 133.558 306.661 134.577 307.223 135.604Z" fill="#D6D6EA"/>
<path d="M321.804 142.384C315.189 145.738 308.895 149.686 302.986 154.171C301.958 154.95 303.228 156.498 304.256 155.72C310.028 151.339 316.169 147.495 322.632 144.214C323.781 143.628 322.953 141.806 321.796 142.392" fill="#D6D6EA"/>
<path d="M253.656 101.815C254.018 99.8896 254.444 97.9879 254.918 96.0862C254.95 96.0702 254.99 96.0702 255.023 96.0461C255.159 95.9578 255.304 95.8776 255.441 95.8054C255.497 95.7813 255.553 95.7492 255.601 95.7252C255.641 95.7091 255.674 95.6931 255.714 95.677C255.802 95.6369 255.786 95.6449 255.666 95.6931C255.746 95.6208 255.963 95.5807 256.068 95.5486C256.212 95.5005 256.357 95.4604 256.51 95.4283C256.582 95.4122 256.646 95.3962 256.719 95.3801C256.759 95.3801 256.92 95.324 256.96 95.34C256.831 95.3561 256.807 95.3641 256.871 95.348C256.903 95.348 256.936 95.348 256.96 95.34C257.04 95.332 257.121 95.324 257.201 95.324C257.506 95.3079 257.812 95.3159 258.109 95.348C258.575 95.3962 259.018 94.9067 259.001 94.4654C258.977 93.9438 258.608 93.6309 258.109 93.5747C257.217 93.4865 256.301 93.6149 255.449 93.9037C255.963 91.994 256.55 90.1004 257.169 88.2148C258.374 92.1946 259.58 96.1745 260.778 100.154C261.108 101.246 262.828 100.78 262.49 99.6809C261.035 94.8666 259.572 90.0522 258.117 85.2379C257.804 84.2028 256.268 84.5719 256.389 85.5508C256.236 85.6471 256.1 85.7835 256.027 86.0002C254.275 90.9991 252.9 96.1263 251.928 101.334C251.719 102.449 253.431 102.923 253.64 101.807" fill="#D6D6EA"/>
<path d="M259.203 82.2127C259.299 82.2046 259.395 82.1966 259.492 82.1966C259.548 82.1966 259.838 82.2448 259.612 82.1966C259.709 82.2207 259.797 82.2367 259.894 82.2608C259.926 82.2608 260.079 82.3411 260.087 82.333C260.151 82.3651 260.215 82.3972 260.272 82.4293C260.296 82.4454 260.432 82.5497 260.44 82.5497C260.497 82.5978 260.545 82.646 260.601 82.6941C260.633 82.7262 260.657 82.7583 260.682 82.7904C260.738 82.8787 260.786 82.9589 260.834 83.0472C260.842 83.0712 260.842 83.0712 260.85 83.0793C260.866 83.1114 260.874 83.1515 260.891 83.1836C260.923 83.2799 260.939 83.3761 260.963 83.4805C260.963 83.5286 260.963 83.5767 260.971 83.6249C260.971 83.7292 260.971 83.8255 260.963 83.9298C260.979 83.7131 260.947 84.0261 260.931 84.0662C260.915 84.1464 260.883 84.2186 260.858 84.2989C260.85 84.3149 260.778 84.4674 260.762 84.4915C260.4 85.1093 260.874 85.7673 261.534 85.8234C262.394 85.9037 263.254 85.9839 264.122 86.0561C264.588 86.0962 265.03 85.6148 265.006 85.1655C264.982 84.6439 264.612 84.323 264.122 84.2748C263.656 84.2347 263.181 84.1866 262.715 84.1464C262.828 83.3601 262.675 82.5336 262.225 81.8757C261.558 80.9048 260.392 80.295 259.203 80.3993C258.744 80.4394 258.294 80.7764 258.318 81.2899C258.334 81.7312 258.712 82.2207 259.203 82.1726" fill="#D6D6EA"/>
<path d="M271.332 94.6499C272.289 94.345 273.254 94.1364 274.234 94C274.315 94.674 274.387 95.356 274.467 96.038C274.524 96.5114 274.837 96.9287 275.36 96.9287C275.794 96.9287 276.3 96.5195 276.244 96.038L275.987 93.8395C276.533 93.8154 277.088 93.8234 277.642 93.8475C278.125 93.8716 278.527 93.4222 278.527 92.9568C278.527 92.4594 278.117 92.0983 277.642 92.0742C277.024 92.0421 276.405 92.0421 275.786 92.0742C275.689 91.2157 275.585 90.3571 275.488 89.4905C275.432 89.0171 275.118 88.5999 274.604 88.5999C274.162 88.5999 273.656 89.0091 273.712 89.4905C273.816 90.4052 273.921 91.32 274.033 92.2347C272.956 92.3871 271.895 92.6118 270.866 92.9408C270.408 93.0852 270.111 93.5586 270.247 94.032C270.368 94.4814 270.882 94.8023 271.34 94.6499" fill="#D6D6EA"/>
<path d="M286.203 86.7785C286.291 86.8266 286.372 86.8427 286.46 86.8587C286.926 90.0603 287.393 93.2618 287.867 96.4634C287.923 96.8646 288.357 97.0972 288.743 97.0972C288.799 97.3059 288.92 97.4984 289.137 97.6028C291.171 98.5496 293.751 98.1564 295.021 96.1825C295.592 95.2999 295.793 94.1926 295.584 93.1655C295.383 92.1946 294.707 91.3361 293.831 90.8707C293.518 90.7102 293.188 90.5899 292.859 90.5176C293.622 89.3863 293.871 87.9018 293.421 86.5859C293.1 85.6391 292.465 84.8207 291.573 84.3473C290.672 83.8658 289.651 83.7294 288.647 83.8819C287.521 84.0504 286.565 84.6602 285.881 85.5589C285.6 85.928 285.809 86.5699 286.203 86.7705M288.204 85.8638C288.204 85.8638 288.317 85.8156 288.349 85.7996C288.51 85.7434 288.663 85.6872 288.831 85.6551C288.864 85.6551 289.137 85.591 289.008 85.623C288.88 85.6471 289.024 85.623 289.057 85.623C289.097 85.623 289.145 85.615 289.185 85.615C289.37 85.599 289.563 85.607 289.748 85.615C289.772 85.615 289.804 85.615 289.836 85.623C289.925 85.6391 290.005 85.6551 290.093 85.6792C290.166 85.6953 290.246 85.7193 290.319 85.7434C290.359 85.7595 290.455 85.7996 290.495 85.8076C290.632 85.8718 290.777 85.944 290.905 86.0323C290.962 86.0644 291.146 86.2329 290.994 86.0884C291.066 86.1526 291.146 86.2168 291.211 86.289C291.267 86.3452 291.315 86.4014 291.372 86.4575C291.388 86.4816 291.404 86.5057 291.42 86.5297C291.468 86.602 291.516 86.6742 291.556 86.7544C291.573 86.7945 291.597 86.8266 291.621 86.8668L291.653 86.9229C291.653 86.9229 291.709 87.0754 291.717 87.0995C291.741 87.1797 291.765 87.268 291.79 87.3482C291.806 87.4204 291.822 87.4926 291.838 87.5729C291.838 87.5729 291.838 87.5729 291.838 87.5809C291.838 87.629 291.846 87.6772 291.854 87.7253C291.862 87.8858 291.87 88.0543 291.854 88.2148C291.854 88.2388 291.838 88.3913 291.83 88.4154V88.4314C291.822 88.4876 291.806 88.5357 291.798 88.5919C291.749 88.7845 291.685 88.969 291.621 89.1536C291.693 88.9369 291.581 89.2338 291.548 89.298C291.508 89.3782 291.468 89.4505 291.42 89.5227C291.38 89.5788 291.179 89.8276 291.331 89.6591C291.267 89.7313 291.203 89.8035 291.138 89.8757C291.074 89.9479 291.002 90.0121 290.929 90.0763C290.937 90.0763 290.946 90.0683 290.954 90.0603C290.946 90.0603 290.938 90.0683 290.921 90.0763C290.897 90.1004 290.857 90.1245 290.873 90.1084C290.849 90.1245 290.817 90.1485 290.793 90.1646C290.52 90.3411 290.351 90.6621 290.359 90.983C290.093 91.2558 289.997 91.7212 290.206 92.0502C290.471 92.4675 290.986 92.6039 291.42 92.3712C291.46 92.3471 291.5 92.331 291.54 92.307C291.54 92.307 291.548 92.307 291.556 92.307C291.605 92.2909 291.685 92.2669 291.701 92.2669C291.741 92.2508 291.894 92.2348 291.886 92.2267C291.942 92.2267 291.999 92.2187 292.063 92.2187C292.143 92.2187 292.224 92.2348 292.296 92.2267C292.312 92.2267 292.336 92.2267 292.36 92.2348C292.449 92.2508 292.537 92.2749 292.626 92.2989C292.666 92.315 292.746 92.3471 292.778 92.3551C292.907 92.4113 293.035 92.4835 293.148 92.5557C293.18 92.5718 293.204 92.5958 293.228 92.6119C293.293 92.6761 293.365 92.7322 293.429 92.8045C293.462 92.8366 293.494 92.8686 293.518 92.9007C293.518 92.9007 293.518 92.9007 293.526 92.9007C293.55 92.9328 293.606 93.0211 293.622 93.0452C293.662 93.1094 293.695 93.1816 293.735 93.2538C293.751 93.31 293.775 93.3581 293.791 93.4143C293.815 93.4945 293.831 93.5748 293.847 93.655C293.847 93.671 293.847 93.7031 293.855 93.7352C293.855 93.9118 293.855 94.0883 293.839 94.2648C293.839 94.3049 293.823 94.3691 293.815 94.4012C293.799 94.4895 293.775 94.5697 293.751 94.65C293.727 94.7222 293.703 94.7944 293.67 94.8666C293.662 94.8746 293.606 95.003 293.582 95.0431C293.542 95.1153 293.494 95.1956 293.453 95.2678C293.437 95.2999 293.389 95.3561 293.373 95.3882C293.253 95.5246 293.132 95.6529 292.995 95.7813C292.995 95.7813 292.979 95.7893 292.971 95.7974C292.979 95.7974 292.979 95.7894 292.995 95.7813C292.987 95.7813 292.979 95.7974 292.963 95.8054C292.931 95.8295 292.923 95.8375 292.931 95.8295C292.915 95.8375 292.907 95.8455 292.891 95.8535C292.81 95.9017 292.73 95.9579 292.65 95.998C292.569 96.0461 292.481 96.0862 292.4 96.1264C292.336 96.1424 292.272 96.1665 292.208 96.1905C292.103 96.2226 291.999 96.2467 291.902 96.2708C291.854 96.2788 291.798 96.2868 291.741 96.3029C291.725 96.3029 291.725 96.3029 291.709 96.3029C291.709 96.3029 291.709 96.3029 291.701 96.3029C291.468 96.3109 291.251 96.327 291.018 96.3109C290.978 96.3109 290.938 96.3029 290.897 96.3029C290.881 96.3029 290.881 96.3029 290.881 96.3029C290.881 96.3029 290.87 96.3029 290.849 96.3029C290.745 96.2788 290.64 96.2628 290.536 96.2387C290.415 96.2066 290.302 96.1745 290.19 96.1344C290.15 96.1183 290.11 96.1103 290.077 96.0943C290.069 96.0943 290.061 96.0943 290.053 96.0862C290.045 96.0862 290.021 96.0702 289.997 96.0541C289.852 95.9899 289.7 95.9659 289.539 95.9659L288.14 86.3693C288.116 86.2168 288.028 86.0965 287.915 85.9921C287.931 85.9841 287.947 85.9681 287.963 85.9601C288.028 85.9199 288.1 85.8878 288.164 85.8477" fill="#D6D6EA"/>
<path d="M290.873 90.1086C290.873 90.1086 290.906 90.0843 290.922 90.0762C290.89 90.1005 290.873 90.1086 290.865 90.1167" fill="#D6D6EA"/>
<path d="M293.832 80.7284C293.832 80.7284 293.888 80.7284 293.912 80.7284C293.968 80.7444 294.049 80.7605 294.089 80.7685C294.089 80.7685 294.089 80.7685 294.097 80.7685C294.137 80.8006 294.258 80.8487 294.274 80.8648C294.29 80.8728 294.306 80.8888 294.33 80.8969C294.37 80.937 294.41 80.9691 294.442 81.0092C294.459 81.0252 294.475 81.0493 294.499 81.0654C294.515 81.0975 294.563 81.1617 294.579 81.1857C294.587 81.2018 294.603 81.2258 294.611 81.2499C294.619 81.2981 294.668 81.4184 294.668 81.4425C294.668 81.5308 294.668 81.611 294.668 81.6993C294.668 81.7314 294.668 81.7233 294.668 81.7394C294.668 81.7715 294.66 81.7955 294.651 81.8196C294.635 81.8918 294.619 81.964 294.611 82.0363C294.563 82.269 294.523 82.4936 294.499 82.7263C294.418 83.4806 294.692 84.3552 295.407 84.7162C296.227 85.1335 297.256 84.7965 297.545 83.8898C297.69 83.4485 297.376 82.9028 296.926 82.7985C296.685 82.7424 296.452 82.7825 296.259 82.8868C296.259 82.8627 296.259 82.8386 296.259 82.8066C296.259 82.7664 296.259 82.7584 296.259 82.7584C296.267 82.7022 296.283 82.6461 296.283 82.6381C296.348 82.269 296.444 81.8918 296.436 81.5147C296.412 80.1266 295.206 78.9551 293.816 78.9551C293.349 78.9551 292.907 79.3643 292.923 79.8457C292.947 80.3272 293.317 80.7284 293.816 80.7284" fill="#D6D6EA"/>
<path d="M308.767 86.9709H307.537C307.312 86.9709 307.071 87.0672 306.91 87.2277C306.821 87.3079 306.757 87.4042 306.725 87.5165C306.669 87.6209 306.645 87.7332 306.645 87.8535C306.653 88.0782 306.733 88.3189 306.902 88.4794C307.079 88.6399 307.288 88.7362 307.529 88.7362H308.759C308.984 88.7362 309.225 88.6399 309.386 88.4794C309.474 88.3992 309.53 88.3029 309.57 88.1906C309.627 88.0862 309.651 87.9739 309.643 87.8455C309.635 87.6128 309.554 87.3801 309.386 87.2197C309.209 87.0592 309 86.9629 308.759 86.9629" fill="#D6D6EA"/>
<path d="M308.766 90.4453H306.926C306.693 90.4453 306.459 90.5416 306.299 90.7101C306.146 90.8626 306.025 91.1193 306.041 91.336C306.066 91.8174 306.427 92.2266 306.934 92.2266H308.774C309 92.2266 309.241 92.1303 309.401 91.9699C309.554 91.8174 309.667 91.5606 309.659 91.344C309.635 90.8626 309.265 90.4533 308.766 90.4533" fill="#D6D6EA"/>
<path d="M320.687 93.5185C322.407 94.1765 324.409 94.024 326.008 93.1093C326.997 92.5396 326.105 91.007 325.108 91.5767C323.09 92.7322 320.269 92.0742 319.112 90.0121C317.93 87.9018 318.661 85.1576 320.808 84.0262C321.925 83.4325 323.372 83.2961 324.553 83.7936C324.996 83.9781 325.502 83.9219 325.767 83.4726C325.984 83.1035 325.896 82.4455 325.446 82.261C322.351 80.9451 318.541 82.269 317.231 85.4465C316.62 86.9309 316.628 88.6801 317.231 90.1645C317.874 91.7372 319.095 92.9087 320.687 93.5105" fill="#D6D6EA"/>
<path d="M309.08 100.299C296.765 103.099 284.708 106.918 273.036 111.717C271.992 112.142 272.45 113.867 273.511 113.426C285.182 108.627 297.248 104.8 309.554 102.008C310.672 101.751 310.197 100.042 309.08 100.299Z" fill="#D6D6EA"/>
<path fill-rule="evenodd" clip-rule="evenodd" d="M182.429 335.456C173.177 335.664 163.539 335.488 154.134 335.544C153.885 335.48 154.391 335.094 154.584 334.91C156.264 333.385 157.743 331.668 159.118 329.662C160.693 327.351 162.317 324.952 163.378 322.328C163.892 322.489 164.166 323.572 164.56 324.045C166.215 326.06 169.616 326.894 172.453 327.761C176.947 329.133 180.765 331.09 182.429 335.456Z" fill="#11103F"/>
<path fill-rule="evenodd" clip-rule="evenodd" d="M112.326 222.383C126.329 226.234 141.168 229.259 156.4 231.891C156.81 232.148 156.473 233.151 156.577 233.704C162.035 235.614 167.469 237.243 172.718 239.137C177.967 241.03 182.975 243.229 187.958 245.475C195.426 248.837 202.5 252.264 208.36 257.423C210.329 259.156 212.346 261.034 213.351 263.216C214.903 266.61 213.383 270.807 211.72 273.447C209.951 276.239 207.749 278.582 205.643 280.692C201.117 285.21 196.342 289.334 191.68 293.274C186.921 297.294 182.235 301.45 177.444 305.679C173.449 309.193 169.205 312.796 164.929 316.455C164.294 317.001 163.353 317.827 163.297 318.084C163.217 318.461 163.546 319.279 163.659 319.897C164.374 323.693 165.001 329.406 163.297 332.752C160.58 338.095 151.979 338.224 143.981 337.462C129.07 336.041 115.011 333.482 101.724 330.401C94.8191 328.796 88.3323 327.432 82.1348 325.329C83.5495 315.637 85.0848 305.286 86.6683 295.456C101.837 297.607 115.477 301.274 128.202 305.863C125.051 299.733 121.386 293.298 118.042 286.67C114.786 280.203 111.531 273.334 108.613 266.57C107.142 263.16 105.832 259.581 104.714 255.706C103.557 251.686 102.624 247.538 102.809 242.852C103.082 235.911 105.341 230.607 108.524 226.467C109.658 224.998 110.815 223.65 112.334 222.391L112.326 222.383ZM153.683 289.19C156.392 286.879 159.045 284.215 161.754 281.671C164.495 279.104 167.389 276.672 170.282 274.337C170.298 274.217 170.66 274.169 170.282 274.153C161.617 274.057 154.174 272.725 146.521 271.617C148.901 277.475 151.392 283.228 153.683 289.182V289.19Z" fill="#342E6B"/>
<path d="M132.551 312.098C133.484 312.555 134.537 313.205 135.638 313.181C136.04 312.178 135.34 311.223 135.003 310.373C133.853 307.516 132.76 304.901 131.554 302.229C126.78 291.597 121.916 280.973 117.584 269.908C116.193 266.346 114.787 262.51 113.5 258.595C111.089 251.253 108.187 241.841 110.148 232.252C110.912 228.521 112.584 225.528 114.602 222.992C113.846 222.792 113.074 222.591 112.327 222.391C110.808 223.65 109.65 224.998 108.517 226.467C105.334 230.607 103.083 235.911 102.802 242.852C102.617 247.538 103.549 251.686 104.707 255.706C105.824 259.581 107.134 263.152 108.605 266.57C111.523 273.326 114.779 280.203 118.034 286.67C121.37 293.298 125.043 299.733 128.194 305.863C115.47 301.274 101.829 297.599 86.6607 295.456C86.5964 295.858 86.5321 296.267 86.4678 296.676C99.4094 299.845 111.965 303.793 123.572 308.046C126.764 309.217 129.698 310.718 132.551 312.122V312.098Z" fill="#27225B"/>
<path d="M211.728 273.439C213.392 270.799 214.911 266.602 213.36 263.208C212.363 261.026 210.346 259.148 208.368 257.415C202.5 252.256 195.427 248.829 187.967 245.467C182.991 243.229 177.984 241.03 172.727 239.129C167.478 237.235 162.036 235.614 156.586 233.696C156.473 233.143 156.811 232.14 156.409 231.883C155.565 231.739 154.721 231.586 153.877 231.434C153.821 231.843 153.756 232.26 153.684 232.693C153.523 233.624 152.977 234.996 153.234 235.678C153.475 236.328 155.533 237.018 156.771 237.395C158.37 237.885 159.729 238.206 160.942 238.575C169.399 241.126 177.083 243.678 184.519 246.815C191.842 249.897 199.148 253.507 204.743 258.402C206.688 260.103 208.561 262.053 209.461 264.284C211.366 269.034 208.834 273.551 206.833 276.777C204.783 280.075 202.396 283.18 199.904 286.117C201.849 284.359 203.77 282.554 205.659 280.668C207.765 278.566 209.968 276.223 211.736 273.423L211.728 273.439Z" fill="#27225B"/>
<path d="M170.283 267.918C162.019 265.423 152.076 264.556 143.531 263.032C144.448 265.993 145.509 268.801 146.546 271.633C154.19 272.741 161.625 274.065 170.283 274.169C170.66 274.177 170.299 274.225 170.283 274.353C167.397 276.688 164.495 279.12 161.754 281.687C159.045 284.231 156.392 286.895 153.684 289.206C153.611 289.005 153.531 288.813 153.45 288.62C153.434 288.636 153.418 288.644 153.41 288.66C154.013 290.65 154.656 292.608 155.315 294.542C159.246 291.148 162.968 287.761 166.923 284.127C168.747 282.45 170.676 280.749 172.638 278.783C173.45 277.972 174.414 277.017 175.266 275.886C176.006 274.899 177.067 273.399 176.81 271.906C176.432 269.764 172.381 268.56 170.283 267.926V267.918Z" fill="#27225B"/>
<path d="M154.134 289.735C154.045 289.503 153.957 289.27 153.86 289.029C153.796 289.077 153.74 289.134 153.675 289.19C151.384 283.236 148.893 277.483 146.513 271.625C146.626 271.641 146.738 271.657 146.843 271.674C146.433 270.719 146.023 269.764 145.605 268.817C142.518 261.876 140.01 254.799 136.899 247.995C136.779 247.979 136.731 247.618 136.723 247.995C142.759 264.99 149.102 281.84 155.042 298.963C156.223 302.365 157.285 305.863 158.394 309.466C159.383 312.676 160.733 316.479 161.296 320.419C161.593 322.489 161.826 324.752 161.657 326.758C161.038 334.236 155.066 336.667 147.864 337.718C154.592 338.023 161.006 337.213 163.289 332.728C164.993 329.382 164.366 323.668 163.651 319.873C163.538 319.255 163.209 318.437 163.289 318.06C163.305 318.004 163.361 317.915 163.45 317.811C162.911 315.653 162.325 313.558 161.746 311.633C159.479 304.026 156.73 296.652 154.125 289.727L154.134 289.735Z" fill="#5F5999"/>
<path fill-rule="evenodd" clip-rule="evenodd" d="M85.6638 303.047C84.8922 308.07 84.0481 313.021 83.6703 318.437C79.3458 319.191 78.6464 323.564 77.1433 327.127C76.7333 326.669 76.0099 326.437 75.4231 326.044C74.8604 325.666 74.1932 325.225 74.0646 324.599C73.8797 323.717 74.5308 322.345 74.8845 321.43C75.9697 318.621 77.1754 315.516 78.3329 312.924C80.23 308.656 82.1672 305.454 84.0481 302.245C84.6671 302.445 85.1494 302.774 85.6799 303.063L85.6638 303.047Z" fill="#F7CBDD"/>
<path fill-rule="evenodd" clip-rule="evenodd" d="M84.7556 302.59C81.8136 309.755 78.6948 316.752 75.6 323.773C76.0582 324.671 77.1032 324.984 77.5935 325.851C77.2238 327.408 77.0067 329.133 76.5968 330.649C77.5694 331.123 78.6385 331.299 79.587 331.732C81.3554 332.551 82.939 333.722 84.209 335.175C84.8038 335.857 85.4308 336.659 85.479 337.71C82.0146 338.071 78.0356 338.392 74.0487 338.16C71.3478 337.999 69.5794 337.742 68.6952 335.809C68.4781 335.335 68.3013 334.637 68.245 334.091C67.9798 331.58 68.1084 328.699 67.9717 325.763C67.5859 317.658 68.4058 307.725 67.9717 300.415C73.7512 299.147 80.9133 300.206 84.7476 302.59H84.7556Z" fill="#11103F"/>
<path d="M160.411 144.615C160.299 145.104 160.178 145.586 160.025 146.051L170.564 147.624C170.531 147.351 170.572 147.022 170.765 146.348C170.757 146.813 170.797 147.319 170.998 147.688L174.342 148.193C174.229 147.648 173.755 147.263 173.771 146.621C173.779 145.931 174.374 145.385 174.478 144.567C174.575 145.305 174.293 145.979 174.277 146.661C174.261 147.423 175.153 147.76 175.37 148.346L176.922 148.579C177.332 147.977 177.565 147.519 177.669 146.773C177.806 145.762 177.276 144.719 177.517 143.804C177.838 142.601 179.269 142.344 179.253 140.86C179.374 141.798 178.972 142.48 178.497 143.002C178.272 143.259 177.911 143.62 178.023 143.989L180.242 144.358C180.941 143.122 181.769 141.702 181.946 140.057C182.139 138.244 181.472 136.551 180.66 135.443C180.001 134.545 178.899 133.847 178.369 132.932C176.271 129.337 178.851 126.296 178.875 122.75C178.891 120.302 178.192 118.112 176.713 116.531C175.579 115.327 174.1 114.621 172.533 113.996C170.869 113.322 167.847 113.289 166.311 112.399C165.057 111.669 164.221 110.545 163.032 109.663C163.136 110.216 163.184 110.778 163.176 111.34C163.136 113.562 162.26 115.215 160.95 116.836C160.596 117.309 160.267 117.799 159.953 118.296C160.371 118.104 160.813 117.943 161.279 117.783C163.104 121.514 165.757 124.635 171.191 125.694C171.327 127.355 170.861 128.856 170.724 130.477C170.556 132.499 171.11 134.416 170.893 136.222C170.556 139.022 169.278 141.189 167.614 142.569C165.805 144.069 163.402 144.831 160.403 144.575C160.403 144.575 160.403 144.583 160.395 144.591L160.411 144.615ZM171.207 124.603C167.34 124.114 164.575 121.739 163.201 119.484C164.929 121.289 167.437 122.91 170.218 123.753C170.515 123.841 170.861 123.921 171.183 123.985L171.215 124.603H171.207Z" fill="#11103F"/>
<path fill-rule="evenodd" clip-rule="evenodd" d="M146.674 137.482C146.039 136.968 145.187 136.647 144.536 135.973C143.378 134.77 142.333 133.004 143.169 130.549C143.571 129.369 144.262 128.768 145.139 128.086C145.235 117.221 151.601 112.182 160.21 113.153C163.659 113.546 166.713 115.279 168.2 117.173C170.483 120.078 171.617 125.197 171.729 130.212C171.785 132.723 172.163 134.609 171.391 137.466C170.346 141.333 167.63 143.516 164.688 144.824C164.141 147.199 162.895 153.955 162.461 154.829C161.979 155.808 160.186 156.466 158.956 156.851C154.929 158.111 149.198 156.996 146.135 153.369C145.147 152.197 143.965 149.75 144.037 148.21C144.037 148.21 146.103 139.383 146.682 137.474" fill="#F7CBDD"/>
<path fill-rule="evenodd" clip-rule="evenodd" d="M163.578 150.127C156.69 149.357 154.069 145.45 153.137 142.417C155.95 144.182 161.585 145.891 164.68 144.832L163.578 150.127Z" fill="#EDA2B5"/>
<path d="M168.666 126.24C168.104 126.128 167.557 126.064 167.091 126.064C166.335 126.064 165.917 126.216 165.853 126.529C165.724 127.179 167.348 127.693 168.329 127.893C168.891 128.006 169.438 128.07 169.904 128.07C170.668 128.07 171.086 127.909 171.15 127.604C171.279 126.946 169.655 126.441 168.674 126.24H168.666Z" fill="#11103F"/>
<path d="M168.635 129.867C168.08 129.819 167.582 130.372 167.517 131.095C167.453 131.817 167.855 132.443 168.418 132.491C168.442 132.491 168.458 132.491 168.482 132.491C169.021 132.491 169.471 131.961 169.535 131.263C169.591 130.541 169.189 129.915 168.635 129.867Z" fill="#11103F"/>
<path d="M161.569 125.759C161.328 125.759 161.078 125.767 160.821 125.791C160.138 125.847 159.495 125.967 159.021 126.136C158.45 126.337 158.177 126.577 158.201 126.85C158.249 127.444 159.623 127.508 160.21 127.508C160.451 127.508 160.701 127.5 160.958 127.476C161.955 127.396 163.635 127.083 163.578 126.417C163.53 125.823 162.156 125.759 161.569 125.759Z" fill="#11103F"/>
<path d="M160.226 129.594C159.671 129.546 159.173 130.1 159.109 130.822C159.053 131.544 159.454 132.17 160.009 132.218C160.033 132.218 160.057 132.218 160.073 132.218C160.612 132.218 161.062 131.688 161.118 130.982C161.175 130.26 160.773 129.634 160.218 129.586L160.226 129.594Z" fill="#11103F"/>
<path d="M165.99 132.9C165.869 131.913 165.717 130.693 165.757 129.434C165.757 129.273 165.701 129.113 165.588 128.992C165.475 128.88 165.331 128.816 165.154 128.808C164.824 128.808 164.559 129.065 164.551 129.394C164.511 130.71 164.664 131.937 164.792 133.044C164.953 134.336 165.106 135.564 164.728 136.037C164.591 136.214 164.342 136.318 163.964 136.35C163.635 136.382 163.394 136.679 163.426 137.008C163.45 137.305 163.683 137.53 163.98 137.554H164.029C164.029 137.554 164.069 137.554 164.085 137.554C164.8 137.482 165.315 137.233 165.668 136.792C166.36 135.925 166.199 134.585 165.99 132.892V132.9Z" fill="#EDA2B5"/>
<path d="M164.712 138.396C164.414 138.453 164.133 138.477 163.876 138.477C162.3 138.477 161.85 137.466 161.85 137.45C161.722 137.153 161.368 137.008 161.062 137.129C160.757 137.257 160.612 137.61 160.733 137.915C160.757 137.979 161.392 139.496 163.466 139.672C163.594 139.68 163.723 139.688 163.86 139.688C164.197 139.688 164.559 139.656 164.937 139.584C165.266 139.52 165.483 139.199 165.419 138.878C165.355 138.549 165.025 138.332 164.712 138.396Z" fill="#EDA2B5"/>
<path d="M136.53 122.91C137.518 121.819 139.15 121.017 140.155 119.989C141.288 118.826 141.626 116.7 142.205 114.926C143.346 111.42 146.344 109.237 149.745 109.398C151.778 109.494 152.952 110.24 154.423 110.882C155.596 109.189 157.18 108.315 159.35 108.419C162.405 108.563 163.611 110.192 165.082 111.5C163.546 112.559 162.582 114.252 162.027 116.154C161.818 116.86 161.472 117.446 161.456 118.144C161.4 118.032 161.344 117.919 161.287 117.799C159.318 118.465 157.735 119.235 157.22 121.634C156.907 123.063 157.116 124.675 156.754 126.208C156.497 127.307 155.99 128.166 155.42 128.776C155.203 129.008 154.656 129.618 154.391 129.313C154.029 128.904 154.969 128.222 155.331 127.636C156.497 125.727 155.765 122.533 156.513 120.367C155.395 121.891 156.079 124.322 155.299 126.16C154.865 127.187 153.86 127.813 153.04 128.591C152.132 129.45 151.682 130.437 151.135 131.512C150.492 130.204 149.632 128.679 147.864 128.679C147.052 128.679 146.417 129.321 146.272 130.084C145.95 131.801 147.526 133.277 149.873 134.184C152.558 136.005 156.682 137.979 155.468 142.135C155.387 142.416 155.452 142.842 155.09 142.946C154.318 142.809 154.849 141.654 154.865 141.004C154.897 139.744 154.174 138.677 153.563 138.204C154.166 139.215 154.198 140.723 153.675 142.031C153.434 142.625 152.936 143.09 152.735 143.708C152.622 144.061 152.735 144.495 152.566 144.751L151.826 144.639C151.65 144.302 151.802 143.78 151.915 143.411C152.132 142.689 153.088 141.863 152.936 141.229C152.469 142.4 151.625 143.066 151.408 144.575L144.938 143.596C144.793 143.187 144.761 142.689 144.801 142.16C144.528 142.545 144.279 142.946 144.182 143.484L138.547 142.633C138.25 140.683 140.332 139.865 140.766 138.693C139.962 139.768 138.419 139.841 138.169 141.678L135.348 141.317C134.85 138.107 139.086 137.931 139.431 136.15C139.576 135.427 138.877 134.352 138.403 133.831C137.848 133.213 137.133 132.788 136.586 132.17C135.469 130.91 134.584 129.161 134.898 126.802C135.075 125.518 135.75 123.737 136.522 122.886L136.53 122.91Z" fill="#11103F"/>
<path d="M159.961 118.329C160.379 118.136 160.821 117.976 161.287 117.815C163.112 121.546 165.765 124.667 171.198 125.727C171.198 125.799 171.206 125.879 171.214 125.951C172.87 125.309 174.727 125.173 176.536 125.703C177.131 125.879 177.693 126.12 178.216 126.417C178.545 125.237 178.875 124.042 178.891 122.782C178.907 120.335 178.208 118.144 176.729 116.563C175.595 115.36 174.116 114.654 172.549 114.028C170.885 113.354 167.863 113.322 166.327 112.431C165.073 111.701 164.237 110.577 163.048 109.695C163.152 110.248 163.2 110.81 163.192 111.372C163.152 113.594 162.276 115.247 160.966 116.868C160.612 117.342 160.282 117.831 159.969 118.329H159.961ZM163.192 119.492C164.921 121.297 167.428 122.918 170.21 123.761C170.507 123.849 170.853 123.929 171.174 123.993L171.206 124.611C167.34 124.122 164.575 121.747 163.2 119.492H163.192Z" fill="#11103F"/>
<path fill-rule="evenodd" clip-rule="evenodd" d="M143.941 148.37C144.383 150.031 144.761 151.668 145.999 153.112C149.077 156.723 155.685 158.135 159.945 156.121C160.653 155.784 161.135 154.942 162.059 155.046C157.293 180.008 152.285 206.752 147.389 231.803C147.389 231.803 129.376 231.201 120.936 226.001C120.936 226.001 136.289 173.966 143.499 148.571C143.62 148.466 143.772 148.418 143.941 148.386" fill="#BDBDE5"/>
<path d="M145.042 200.774C145.203 201.16 145.934 201.673 146.401 202.002C147.695 202.901 149.118 203.486 150.589 203.791C150.693 203.254 150.798 202.716 150.894 202.179C149.142 202.05 147.196 201.625 145.034 200.782" fill="#5F5999"/>
<path fill-rule="evenodd" clip-rule="evenodd" d="M143.885 147.953L144.15 148.001C144.753 152.262 147.815 156.209 153.828 156.819C155.363 156.98 157.14 156.771 158.538 156.386C159.937 156.001 161.078 155.078 162.373 154.829C163.233 159.291 159.969 164.482 155.733 163.704C153.024 163.206 151.963 160.566 151.867 157.79C150.323 159.628 148.917 161.553 146.312 161.176C142.357 160.599 140.862 155.576 142.172 151.138C142.502 150.031 143.233 148.723 143.885 147.945" fill="#5F5999"/>
<path fill-rule="evenodd" clip-rule="evenodd" d="M110.084 223.867C110.518 213.524 113.308 179.76 113.308 179.76C113.5 178.628 113.886 178.075 114.127 176.983C115.767 169.609 115.261 163.776 112.994 158.585C116.796 155.319 121.225 152.807 126.04 150.97C131.072 149.052 136.45 148.386 142.446 148.354C142.647 148.354 143.009 148.17 143.387 148.402C143.869 148.699 143.74 148.627 143.596 149.397C143.459 150.111 142.615 152.486 142.511 152.847C137.438 170.259 133.275 188.265 128.548 205.853C126.788 212.417 123.251 228.232 122.158 234.82L110.076 223.867H110.084Z" fill="#07A587"/>
<path d="M113.307 179.752C113.307 179.752 110.518 213.524 110.084 223.867L112.415 224.324C112.849 213.901 114.127 176.983 114.127 176.983C113.886 178.075 113.5 178.628 113.307 179.76" fill="#A8A8A8"/>
<path fill-rule="evenodd" clip-rule="evenodd" d="M144.206 147.76C144.206 147.76 135.959 177.834 132.382 191.138C131.635 189.348 129.408 180.891 129.633 178.933C129.786 177.625 132.76 172.707 132.664 171.8C132.583 170.989 126.362 167.066 126.394 165.686C126.458 162.942 134.159 151.299 136.216 149.654C138.21 148.065 141.184 148.065 144.198 147.76" fill="#037C65"/>
<path fill-rule="evenodd" clip-rule="evenodd" d="M140.051 253.539C140.429 255.297 143.491 259.766 142.181 260.753C140.758 261.828 138.483 257.03 137.487 256.035C138.122 257.929 140.139 261.427 139.448 262.157C138.668 262.976 137.141 261.419 136.241 260.304C135.276 259.116 134.641 257.728 134.086 257.078C134.504 258.53 135.903 261.275 134.721 261.941C133.556 262.59 132.109 259.453 131.297 258.37C130.228 256.942 129.014 255.096 128.09 254.374C127.391 253.828 126.008 253.692 124.698 253.548C121.257 253.178 117.624 251.758 115.188 249.006L123.814 243.132C125.614 243.758 127.334 243.654 129.625 243.381C131.112 243.205 133.275 242.651 134.754 243.221C136.964 244.071 140.469 247.859 142.358 251.148C143.137 252.504 145.171 256.356 144.359 257.062C142.977 258.258 140.959 254.518 140.043 253.548" fill="#F7CBDD"/>
<path fill-rule="evenodd" clip-rule="evenodd" d="M142.502 260.111C142.035 262.703 139.407 259.052 138.362 257.567C136.73 255.233 135.203 252.512 134.062 251.124C136.417 252.328 138.7 257.824 140.918 259.63C141.368 259.991 141.923 260.288 142.494 260.111" fill="#EDA2B5"/>
<path fill-rule="evenodd" clip-rule="evenodd" d="M144.552 256.396C144.576 257.118 144.231 257.191 143.973 257.287C142.985 257.664 141.168 255.153 140.356 253.989C138.725 251.654 137.254 248.79 136.12 247.409C138.475 248.613 140.758 254.109 142.985 255.915C143.435 256.276 143.99 256.573 144.56 256.396" fill="#EDA2B5"/>
<path fill-rule="evenodd" clip-rule="evenodd" d="M134.89 261.82C134.03 262.767 132.253 260.392 131.289 259.148C130.734 258.442 130.212 257.648 129.673 256.853C129.134 256.067 128.636 255.056 128.057 254.559C127.101 253.74 124.319 253.828 122.977 253.467C120.099 252.681 117.366 251.357 115.204 249.006C118.001 246.968 120.646 245.066 123.829 243.133C123.877 243.774 122.27 245.917 120.566 246.928C119.207 247.738 118.042 248.3 116.908 248.485C119.328 250.49 122.213 252.015 125.228 253.09C126.747 253.628 127.816 253.564 128.917 254.976C130.654 257.206 133.427 261.9 134.898 261.804" fill="#EDA2B5"/>
<path fill-rule="evenodd" clip-rule="evenodd" d="M139.472 260.938C140.155 263.481 138.017 262.278 137.333 261.676C134.858 259.501 133.917 255.57 130.605 252.336C131.321 252.545 131.691 252.97 132.221 253.556C133.652 255.128 135.469 258.29 136.883 260.095C137.526 260.922 138.378 261.748 139.464 260.938" fill="#EDA2B5"/>
<path fill-rule="evenodd" clip-rule="evenodd" d="M109.98 211.334C115.221 221.356 120.486 231.361 125.558 241.552C125.494 242.057 119.103 247.104 115.84 249.086C115.349 249.383 114.634 249.969 114.312 249.969C113.613 249.969 112.488 248.364 111.981 247.802C107.022 242.306 102.295 236.609 98.1716 230.334C95.736 226.627 93.6059 222.88 92.0705 218.555C91.2346 216.196 90.6478 213.725 90.7844 210.86C90.913 208.116 91.5641 205.837 92.2313 203.406C93.4692 198.873 95.1331 194.475 96.8855 190.183C98.6378 185.89 100.39 181.741 102.343 177.762C104.224 173.934 106.282 169.93 108.525 166.063C109.578 164.257 110.824 162.42 112.062 160.614C113.653 158.288 115.325 155.848 118.082 155.006C120.188 154.364 121.876 156.209 122.576 157.573C123.46 159.283 123.685 161.28 123.701 163.503C123.733 168.173 122.415 172.707 121.37 176.566C118.163 188.457 113.935 200.63 109.972 211.35L109.98 211.334Z" fill="#07C1A1"/>
<path d="M104.28 229.765C102.375 226.178 100.671 222.447 99.5459 218.226C98.9511 215.987 98.4607 213.709 98.4205 211.173C98.3804 208.621 98.6858 206.254 99.0636 203.639C101.113 189.557 104.867 176.767 109.98 165.734C111.467 162.524 113.042 159.411 115.132 156.763C113.95 157.854 112.994 159.25 112.07 160.606C110.832 162.42 109.586 164.249 108.533 166.055C106.29 169.922 104.232 173.926 102.351 177.754C100.39 181.733 98.6456 185.882 96.8933 190.175C95.1409 194.467 93.477 198.864 92.2391 203.398C91.572 205.829 90.9209 208.108 90.7922 210.852C90.6556 213.717 91.2424 216.188 92.0784 218.547C93.6137 222.872 95.7438 226.619 98.1794 230.326C102.303 236.609 107.021 242.298 111.989 247.794C112.487 248.348 113.613 249.953 114.32 249.961C114.642 249.961 115.357 249.375 115.847 249.078C116.145 248.894 116.442 248.709 116.732 248.524C114.682 245.604 112.584 242.755 110.47 239.859C108.187 236.737 106.194 233.351 104.288 229.765H104.28Z" fill="#079E81"/>
<path d="M106.853 204.04C106.853 204.04 110.028 211.414 109.979 211.334C110.285 210.507 110.59 209.673 110.904 208.83L106.853 204.04Z" fill="#079E81"/>
<path fill-rule="evenodd" clip-rule="evenodd" d="M183.819 202.371C184.768 201.946 193.859 191.499 198.039 186.243L206.64 195.005C203.183 201.585 200.362 206.134 196.085 212.513C194.285 215.193 192.291 218.323 190.129 221.38C188.216 224.084 185.917 227.855 183.224 228.842C180.829 229.717 177.557 228.561 175.869 226.86C174.406 225.376 173.361 222.928 172.549 220.922C170.419 215.602 169.117 210.018 167.943 203.607C167.718 202.379 167.453 200.301 167.453 200.301C167.55 199.595 168.241 197.557 168.651 196.562C171.963 188.442 176.118 180.859 181.97 176.911C182.782 185.136 182.999 194.155 183.811 202.379" fill="#07C1A1"/>
<path d="M205.506 193.842C202.58 199.218 199.959 203.406 196.214 208.999C194.413 211.679 192.419 214.808 190.257 217.865C188.352 220.569 186.045 224.34 183.352 225.327C180.957 226.202 177.677 225.047 175.997 223.345C174.534 221.861 173.489 219.414 172.686 217.408C170.555 212.088 169.253 206.503 168.08 200.092C168.007 199.707 167.935 199.242 167.871 198.784C167.67 199.41 167.517 199.98 167.469 200.293C167.469 200.293 167.726 202.371 167.959 203.599C169.141 210.01 170.435 215.594 172.565 220.914C173.369 222.92 174.414 225.368 175.877 226.852C177.557 228.553 180.836 229.708 183.232 228.834C185.925 227.847 188.224 224.076 190.137 221.372C192.299 218.315 194.292 215.185 196.093 212.505C200.369 206.118 203.183 201.577 206.647 194.997L205.514 193.842H205.506Z" fill="#079E81"/>
<path fill-rule="evenodd" clip-rule="evenodd" d="M220.434 181.541C214.244 180.562 215.12 190.327 213.561 190.913C212.355 191.362 211.158 191.394 210.113 191.86C208.224 192.71 208.079 193.609 206.64 194.997L198.039 186.235C199.301 184.694 200.242 183.627 201.656 182.335C202.95 181.164 204.365 179.832 205.876 178.821C209.686 176.285 214.244 176.293 220.201 177.834C222.25 178.364 227.049 179.864 226.438 181.364C225.948 182.56 221.744 181.581 220.426 181.541" fill="#EDA2B5"/>
<path fill-rule="evenodd" clip-rule="evenodd" d="M216.495 178.059C217.017 179.294 213.722 181.188 211.881 182.175C210.683 182.817 209.445 183.266 208.408 183.932C208.891 187.182 207.283 191.611 206.64 194.997L198.039 186.243C200.515 182.953 205.113 179.952 209.646 178.348C211.776 177.593 215.908 176.679 216.495 178.059Z" fill="#F7CBDD"/>
<path fill-rule="evenodd" clip-rule="evenodd" d="M212.025 188.241C211.229 188.281 208.665 188.417 208.553 187.35C208.376 185.681 212.724 184.309 213.794 184.173C212.861 184.044 210.996 183.796 210.94 182.801C210.86 181.372 216.816 179.984 219.798 181.284C221.936 182.223 220.128 183.499 218.287 184.109C218.745 184.277 219.147 184.51 219.203 184.967C219.541 186.644 216.848 186.981 215.313 187.463C215.867 187.695 216.382 187.952 216.47 188.498C216.88 190.592 208.159 192.935 207.668 191.787C207.058 190.359 210.506 188.875 212.017 188.233" fill="#F7CBDD"/>
<path d="M167.622 199.828C167.413 200.429 167.212 201.031 167.012 201.641C164.238 210.387 160.886 224.646 159.021 234.748L161.497 235.229C162.414 224.991 164.93 211.839 166.875 202.885C167.1 201.842 167.349 200.823 167.622 199.82" fill="#A8A8A8"/>
<path fill-rule="evenodd" clip-rule="evenodd" d="M162.872 153.032C170.275 156.683 175.677 162.925 179.374 169.89C179.865 170.813 180.475 172.041 180.982 173.461C181.448 174.777 182.115 176.558 181.963 177.449C181.786 178.476 179.961 179.471 179.069 180.41C174.005 185.77 169.777 192.943 167.011 201.641C164.238 210.379 160.09 229.556 158.226 239.666L142.093 241.977C146.57 219.39 162.759 153.225 162.864 153.032" fill="#07A587"/>
<path fill-rule="evenodd" clip-rule="evenodd" d="M152.655 196.016C154.11 194.732 161.433 187.768 162.084 185.914C162.518 184.67 162.004 178.949 162.478 178.171C162.904 177.473 170.219 176.662 170.79 175.411C171.931 172.907 170.034 159.395 168.901 157.02C167.807 154.717 165.75 153.265 163.169 151.668C163.169 151.668 155.26 182.488 152.655 196.016Z" fill="#037C65"/>
<path d="M165.162 194.355C165.21 193.938 165.186 193.352 164.969 192.839C164.929 193.015 161.255 202.901 150.838 202.154C150.733 202.708 150.629 203.262 150.524 203.815C157.043 205.155 164.39 201.103 165.17 194.355" fill="#037C65"/>
<path fill-rule="evenodd" clip-rule="evenodd" d="M264.154 278.213C268.181 279.296 272.248 280.339 276.75 280.989C276.918 285.844 277.457 290.867 277.28 295.809C277.095 300.897 276.34 305.703 275.303 310.156C273.253 318.982 270.705 327.512 268.181 335.447C264.202 335.447 261.236 334.485 259.17 332.703C260.737 314.537 262.088 296.146 264.057 278.405C264.025 278.221 264.138 278.06 264.162 278.213H264.154Z" fill="#B9695B"/>
<path d="M268.172 335.455C270.705 327.528 273.253 318.99 275.294 310.164C276.323 305.711 277.087 300.904 277.272 295.817C277.449 290.867 276.918 285.844 276.741 280.997C275.881 280.877 275.037 280.732 274.209 280.58C273.992 281.719 273.775 282.891 273.622 284.078C273.285 286.686 273.333 289.43 273.229 292.287C273.028 297.711 272.803 303.32 272.143 308.792C271.034 318.06 268.703 325.578 266.589 333.65C266.436 334.22 266.251 334.797 266.099 335.351C266.758 335.415 267.449 335.447 268.172 335.447V335.455Z" fill="#9B443B"/>
<path fill-rule="evenodd" clip-rule="evenodd" d="M268.277 289.88C268.068 290.465 265.922 291.861 264.917 291.693C264.298 291.589 263.832 291.011 263.808 290.104C264.861 289.655 267.031 289.462 268.277 289.88Z" fill="#9B443B"/>
<path d="M268.172 335.455C270.704 327.528 273.252 318.99 275.294 310.164C275.399 309.715 275.495 309.249 275.6 308.792C271.355 307.773 266.163 306.955 261.291 307.259C260.568 315.733 259.885 324.238 259.153 332.703C261.227 334.485 264.185 335.447 268.164 335.447L268.172 335.455Z" fill="#E1E1F4"/>
<path d="M272.232 308.078C272.208 308.319 272.183 308.559 272.151 308.8C271.042 318.068 268.711 325.586 266.597 333.658C266.444 334.228 266.259 334.806 266.106 335.359C266.396 335.391 266.701 335.407 267.007 335.423C267.071 335.423 267.143 335.423 267.208 335.431C267.521 335.447 267.843 335.455 268.172 335.455C270.704 327.528 273.252 318.99 275.294 310.164C275.399 309.715 275.495 309.249 275.6 308.792C274.531 308.535 273.397 308.295 272.224 308.078H272.232Z" fill="#BDBDE5"/>
<path fill-rule="evenodd" clip-rule="evenodd" d="M263.462 331.219C263.727 332.077 263.365 333.49 264.072 333.947C266.323 334.124 267.175 332.856 269.08 332.679C270.334 333.939 270.117 337.437 269.354 339.171C267.609 339.588 265.72 339.596 263.863 339.845C258.864 340.503 252.417 341.554 247.168 339.628C247.313 337.774 247.723 336.266 248.743 335.231C250.005 333.947 252.353 333.498 254.193 332.816C256.074 332.126 257.859 331.267 259.153 329.991C259.225 329.919 259.314 329.638 259.467 329.807C261.187 329.935 262.65 330.28 263.47 331.211L263.462 331.219Z" fill="#11103F"/>
<path d="M263.856 339.845C265.712 339.604 267.601 339.596 269.346 339.171C269.651 338.48 269.868 337.502 269.941 336.507C265.921 336.539 262.553 337.686 258.558 338.007C254.957 338.296 251.139 338.448 247.514 337.502C247.337 338.143 247.224 338.858 247.16 339.628C252.409 341.554 258.856 340.503 263.856 339.845Z" fill="#27225B"/>
<path fill-rule="evenodd" clip-rule="evenodd" d="M284.724 278.999C288.863 279.553 293.027 280.074 297.577 280.139C298.372 284.929 299.554 289.84 300.004 294.774C300.478 299.837 300.342 304.708 299.892 309.257C298.999 318.268 297.569 327.063 296.082 335.247C292.127 335.752 289.072 335.183 286.789 333.682C286.002 315.46 284.981 297.053 284.643 279.208C284.587 279.023 284.675 278.855 284.724 279.007V278.999Z" fill="#B9695B"/>
<path d="M296.089 335.239C297.576 327.047 299.007 318.26 299.899 309.25C300.349 304.7 300.478 299.837 300.012 294.766C299.553 289.832 298.372 284.921 297.584 280.131C296.716 280.115 295.864 280.083 295.02 280.042C294.947 281.206 294.891 282.385 294.891 283.589C294.891 286.221 295.293 288.933 295.558 291.781C296.057 297.19 296.555 302.782 296.611 308.295C296.708 317.635 295.365 325.386 294.304 333.658C294.232 334.244 294.119 334.846 294.039 335.407C294.698 335.383 295.389 335.327 296.105 335.239H296.089Z" fill="#9B443B"/>
<path fill-rule="evenodd" clip-rule="evenodd" d="M290.326 290.032C290.189 290.642 288.244 292.295 287.223 292.263C286.596 292.239 286.058 291.725 285.921 290.827C286.902 290.249 289.032 289.776 290.318 290.032H290.326Z" fill="#9B443B"/>
<path d="M296.089 335.239C297.576 327.046 299.007 318.26 299.9 309.249C299.948 308.784 299.988 308.319 300.02 307.845C295.679 307.38 290.43 307.235 285.64 308.166C286.017 316.663 286.435 325.185 286.797 333.674C289.08 335.175 292.135 335.744 296.089 335.239Z" fill="#E1E1F4"/>
<path d="M296.58 307.572C296.58 307.813 296.588 308.054 296.596 308.295C296.692 317.634 295.35 325.386 294.289 333.658C294.216 334.244 294.104 334.846 294.023 335.407C294.321 335.399 294.618 335.375 294.924 335.359C294.988 335.359 295.06 335.351 295.125 335.343C295.438 335.319 295.76 335.287 296.081 335.239C297.568 327.047 298.999 318.26 299.891 309.249C299.94 308.784 299.98 308.319 300.012 307.845C298.919 307.725 297.761 307.629 296.572 307.564L296.58 307.572Z" fill="#BDBDE5"/>
<path fill-rule="evenodd" clip-rule="evenodd" d="M290.864 331.644C291.234 332.463 291.057 333.907 291.821 334.276C294.08 334.164 294.763 332.8 296.62 332.374C298.026 333.458 298.259 336.964 297.721 338.777C296.049 339.419 294.176 339.668 292.359 340.15C287.48 341.441 281.226 343.311 275.776 342.075C275.68 340.222 275.889 338.673 276.773 337.518C277.866 336.081 280.125 335.335 281.869 334.42C283.646 333.49 285.31 332.414 286.427 330.986C286.491 330.906 286.54 330.617 286.708 330.77C288.429 330.673 289.932 330.834 290.856 331.644H290.864Z" fill="#11103F"/>
<path d="M292.367 340.15C294.184 339.668 296.057 339.419 297.729 338.777C297.946 338.047 298.026 337.06 297.97 336.057C293.991 336.603 290.792 338.176 286.877 339.01C283.34 339.764 279.578 340.398 275.857 339.925C275.76 340.583 275.744 341.305 275.784 342.083C281.234 343.319 287.496 341.449 292.367 340.158V340.15Z" fill="#27225B"/>
<path fill-rule="evenodd" clip-rule="evenodd" d="M315.646 277.066C306.949 279.954 297.046 282.803 286.154 283.758C274.764 284.76 263.358 283.822 254.17 280.7C254.813 272.163 255.343 263.361 256.083 254.799C256.814 246.27 257.65 237.925 259.628 230.519C270.335 234.081 285.616 232.87 295.728 229.853C296.419 229.644 297.094 229.251 297.737 229.187C297.874 229.171 297.978 229.042 298.123 229.091C299.425 229.508 301.041 232.461 301.764 233.68C304.851 238.92 306.153 245.772 307.89 252.127C310.237 260.737 313.074 268.785 315.646 277.074V277.066Z" fill="#07A587"/>
<path d="M307.897 252.119C306.161 245.764 304.85 238.912 301.772 233.672C301.056 232.453 299.433 229.5 298.13 229.083C297.994 229.034 297.881 229.163 297.745 229.179C297.56 229.203 297.367 229.251 297.174 229.315C297.27 231.409 297.463 233.191 297.937 235.012C300.18 243.646 303.387 251.397 305.887 259.766C307.736 265.976 309.593 272.179 311.217 278.494C312.728 278.028 314.207 277.547 315.654 277.066C313.082 268.777 310.252 260.729 307.897 252.119Z" fill="#037C65"/>
<path d="M261.549 234.346C261.886 233.295 262.345 232.236 262.409 231.313C261.46 231.08 260.528 230.824 259.636 230.519C257.666 237.917 256.83 246.262 256.091 254.799C255.351 263.361 254.821 272.163 254.178 280.7C254.7 280.877 255.231 281.045 255.769 281.214C256.637 273.463 257.305 265.623 258.1 257.953C258.944 249.856 259.362 241.207 261.549 234.346Z" fill="#037C65"/>
<path fill-rule="evenodd" clip-rule="evenodd" d="M251.685 200.702C254.828 201.071 257.609 201.801 260.495 202.419C260.294 207.37 260.149 212.417 259.924 217.231C259.796 219.871 259.78 222.286 259.45 224.493C259.121 226.619 258.357 228.433 257.634 230.326C254.692 237.949 251.613 244.825 247.963 251.357C244.66 250.418 242.538 249.832 239.354 248.773C241.734 241.391 245.729 230.8 248.124 222.864C250.23 215.891 251.171 201.849 251.508 200.895C251.524 200.846 251.605 200.533 251.701 200.702H251.685Z" fill="#B9695B"/>
<path d="M257.626 230.326C258.357 228.433 259.121 226.619 259.442 224.493C259.78 222.286 259.796 219.871 259.917 217.231C260.142 212.409 260.286 207.37 260.487 202.419C260.327 202.387 260.174 202.347 260.013 202.315C259.016 209.633 258.301 216.798 256.846 223.538C254.636 233.833 249.186 249.086 249.78 247.939C252.65 242.426 255.182 236.633 257.61 230.326H257.626Z" fill="#9B443B"/>
<path fill-rule="evenodd" clip-rule="evenodd" d="M239.387 257.19C239.725 258.362 237.152 264.436 238.39 264.717C239.845 265.046 240.955 259.822 241.863 258.209C241.903 260.175 240.48 263.946 241.437 264.46C243.028 265.319 243.688 258.94 245.143 256.059C245.946 256.436 245.633 260.544 247.433 260.625C249.588 259.894 247.12 254.39 249.146 248.854C248.277 248.484 248.824 248.26 248.012 247.401C246.115 245.403 243.221 244.874 241.172 244.601C238.832 248.204 236.26 251.862 234.765 255.473C234.283 256.629 233.077 258.25 233.953 259.02C234.669 259.654 236.043 256.701 237.128 255.722C236.799 258.033 234.548 262.839 235.746 263.16C236.823 263.449 238.583 258.498 239.387 257.182V257.19Z" fill="#B9695B"/>
<path fill-rule="evenodd" clip-rule="evenodd" d="M248.984 222.84C251.581 220.93 253.759 223.683 253.759 223.683L248.984 222.84Z" fill="#9B443B"/>
<path fill-rule="evenodd" clip-rule="evenodd" d="M306.523 188.12C287.77 187.591 269.201 187.15 250.649 186.636C250.167 181.404 253.559 178.612 254.708 174.889C255.335 172.859 255.022 170.684 254.893 168.446C254.483 161.288 259.965 158.376 260.866 152.815C261.268 150.36 261.227 148.105 261.662 146.155C262.088 144.254 262.875 142.673 263.977 141.277C266.155 138.509 270.423 136.053 275.254 137.233C275.809 137.369 276.275 137.714 276.757 137.738C277.457 137.778 278.06 137.425 278.654 137.337C279.281 137.249 280.005 137.201 280.785 137.201C285.937 137.225 288.718 139.632 290.447 142.32C291.475 143.909 292.078 145.53 292.279 147.6C292.472 149.59 292.11 151.684 292.778 153.995C293.758 157.381 297.126 158.97 297.898 162.853C298.155 164.137 298.051 165.437 298.019 166.769C297.89 172.201 302.038 173.926 304.12 177.802C305.727 180.795 306.298 183.852 306.523 188.12Z" fill="#11103F"/>
<path fill-rule="evenodd" clip-rule="evenodd" d="M311.989 198.8C307.439 199.587 301.049 200.87 296.981 201.753C298.46 209.825 299.971 217.785 301 226.699C301.081 227.397 301.274 228.184 301.193 228.424C300.968 229.107 297.785 230.23 296.885 230.527C291.998 232.124 286.089 232.862 280.414 233.303C276.162 233.632 271.942 233.6 268.253 233.014C264.539 232.428 261.042 231.642 258.486 229.957C259.185 220.962 259.684 211.783 260.021 202.427C256.219 201.568 251.983 201.151 248.342 200.132C248.47 199.482 248.752 198.856 249.009 198.222C250.753 193.938 252.506 189.228 254.66 185.127C256.468 181.677 258.663 178.427 262.031 176.43C263.454 175.587 268.976 174.785 269.595 174.712C270.576 177.834 272.231 182.271 277.062 181.019C280.093 180.233 282.609 177.593 284.53 175.282C284.795 174.961 285.253 174.568 285.583 174.135C285.985 173.605 284.779 172.995 285.149 172.835C285.454 172.698 291.515 172.923 293.34 173.276C298.709 174.311 302.487 176.767 305.02 180.538C308.396 185.569 310.244 192.172 311.989 198.8Z" fill="#342E6B"/>
<path d="M301.193 228.416C301.274 228.184 298.693 211.069 297.327 203.631C296.66 201.023 295.438 191.153 295.221 191.161C295.1 191.161 297.214 230.029 297.246 230.398C298.428 229.989 300.992 229.026 301.201 228.416H301.193Z" fill="#27225B"/>
<path d="M260.399 195.254C259.893 197.565 258.559 228.978 258.486 229.949C259.612 230.687 262.401 231.425 262.409 231.289C262.473 230.35 260.777 195.222 260.399 195.254Z" fill="#27225B"/>
<path fill-rule="evenodd" clip-rule="evenodd" d="M283.59 164.249C285.182 161.754 286.387 160.141 287.038 155.022C288.308 145.04 282.585 139.736 274.515 139.8C271.283 139.824 268.277 141.132 266.718 142.729C264.314 145.176 262.771 149.79 262.184 154.404C261.887 156.715 261.356 158.408 261.79 161.128C262.385 164.795 264.017 168.735 268.365 169.585C268.365 169.585 268.783 177.657 269.105 178.508C269.459 179.455 270.343 179.727 271.444 180.201C275.053 181.757 280.479 181.284 283.67 178.243C284.707 177.256 285.23 176.47 285.31 175.041C285.31 175.041 283.944 166.079 283.598 164.265L283.59 164.249Z" fill="#B9695B"/>
<path fill-rule="evenodd" clip-rule="evenodd" d="M268.655 173.589C275.118 173.549 277.071 170.155 278.228 167.451C275.447 168.807 272.811 170.267 268.357 169.577L268.655 173.589Z" fill="#9B443B"/>
<path d="M265.182 153.634C266.043 153.594 267.497 153.377 267.473 152.791C267.449 152.31 266.469 152.181 265.89 152.149C265.649 152.133 265.383 152.133 265.126 152.149C264.266 152.181 262.811 152.406 262.835 152.992C262.859 153.473 263.832 153.602 264.419 153.634C264.668 153.65 264.925 153.65 265.19 153.634H265.182Z" fill="#11103F"/>
<path d="M264.596 154.468C264.105 154.444 263.687 154.91 263.639 155.535C263.591 156.169 263.945 156.699 264.435 156.739H264.443C264.933 156.763 265.351 156.298 265.4 155.664C265.424 155.311 265.327 154.974 265.126 154.741C264.982 154.573 264.797 154.476 264.588 154.46L264.596 154.468Z" fill="#11103F"/>
<path d="M273.791 153.786C273.534 153.369 272.537 153 271.765 152.815C271.323 152.711 270.897 152.639 270.519 152.623C269.804 152.583 269.402 152.711 269.33 153C269.193 153.569 270.576 154.059 271.412 154.26C271.854 154.364 272.28 154.428 272.658 154.452C273.373 154.492 273.775 154.364 273.839 154.083C273.855 154.019 273.863 153.915 273.783 153.786H273.791Z" fill="#11103F"/>
<path d="M271.693 155.359C271.203 155.335 270.785 155.8 270.737 156.434C270.689 157.076 271.042 157.606 271.533 157.638H271.541C272.031 157.662 272.449 157.196 272.497 156.562C272.545 155.929 272.192 155.399 271.685 155.359H271.693Z" fill="#11103F"/>
<path d="M267.449 162.251C267.449 162.251 267.505 162.259 267.546 162.267H267.554C267.811 162.283 268.044 162.115 268.108 161.866C268.181 161.577 268.012 161.28 267.722 161.2C267.425 161.12 267.232 161.008 267.144 160.855C266.894 160.422 267.184 159.427 267.497 158.36C267.755 157.477 268.044 156.466 268.189 155.359C268.205 155.214 268.173 155.07 268.076 154.958C267.988 154.845 267.859 154.773 267.722 154.757H267.674C267.401 154.733 267.152 154.942 267.111 155.222C266.983 156.266 266.685 157.269 266.452 158.079C266.05 159.467 265.737 160.558 266.211 161.385C266.452 161.81 266.862 162.091 267.457 162.243L267.449 162.251Z" fill="#9B443B"/>
<path d="M270.038 162.837C269.797 162.693 269.451 162.765 269.29 163.014C269.274 163.038 268.864 163.672 267.779 163.616C267.474 163.599 267.144 163.527 266.798 163.407C266.525 163.303 266.204 163.463 266.099 163.736C266.003 164.017 266.147 164.33 266.429 164.426C266.855 164.578 267.265 164.667 267.659 164.699H267.731C269.459 164.795 270.183 163.632 270.215 163.583C270.367 163.335 270.287 162.998 270.038 162.845V162.837Z" fill="#9B443B"/>
<path fill-rule="evenodd" clip-rule="evenodd" d="M284.949 138.581C286.621 142.264 286.902 146.982 287.609 151.379C285.423 151.844 282.851 152.422 280.487 152.43C280.11 151.331 279.82 150.167 279.555 148.98C279.081 150.023 278.92 151.363 278.639 152.582C274.909 152.446 271.525 152.053 268.366 151.499C268.43 150.801 268.293 150.256 268.269 149.63C267.843 150.063 267.747 150.809 267.361 151.275C266.999 151.138 266.364 151.202 266.043 151.034C266.043 149.766 266.348 148.763 266.34 147.487C265.769 148.498 265.287 149.598 264.829 150.713C264.122 150.504 263.31 150.376 262.61 150.167C262.924 148.185 263.374 146.051 264.17 144.141C265.568 140.803 267.273 137.762 271.71 137.425C271.742 137.425 271.782 137.425 271.814 137.425C273.526 137.498 275.102 138.517 276.967 138.645C279.668 138.837 282.047 138.051 284.949 138.581Z" fill="#11103F"/>
<path fill-rule="evenodd" clip-rule="evenodd" d="M279.563 148.98L281.316 156.097C281.316 156.097 284.547 154.653 285.295 156.819C286.396 159.973 283.06 161.778 283.06 161.778L284.041 166.929L289.893 160.831L289.016 149.461L279.563 148.98Z" fill="#11103F"/>
<path fill-rule="evenodd" clip-rule="evenodd" d="M272.144 182.833C271.275 183.699 270.367 185.079 269.338 185.85C268.904 186.178 268.116 186.692 267.481 186.564C266.147 186.299 266.091 182.407 265.986 180.859C265.914 179.816 265.826 178.676 265.906 177.408C266.035 175.33 266.436 172.738 268.607 173.774C269.829 176.349 272.296 180.514 272.296 180.514C272.296 180.514 282.521 172.65 284.635 170.74C285.085 171.455 286.46 173.22 286.379 174.568C286.331 175.467 284.748 177.392 284.016 178.564C282.425 181.083 280.817 183.033 278.936 185.456C278.18 186.427 276.902 188.048 275.849 188.024C274.812 188 274 186.339 273.615 185.721C272.955 184.67 272.57 183.844 272.144 182.825V182.833Z" fill="#F8F8F8"/>
<path fill-rule="evenodd" clip-rule="evenodd" d="M278.38 228.946C277.223 231.048 276.234 233.416 275.189 235.614C274.715 236.609 274.257 237.676 274.723 238.31C274.964 238.631 275.543 238.912 276.122 239.177C277.689 239.891 279.248 240.509 280.808 241.239C282.785 242.162 285.181 243.261 287.134 244.224C289.16 245.219 291.362 246.358 293.315 247.377C294.28 247.883 295.309 248.468 296.37 248.998C297.624 249.616 299.031 250.426 299.818 249.945C300.381 249.6 300.807 248.717 301.209 247.851C301.619 246.952 302.069 246.045 302.439 245.291C303.339 243.453 304.247 242.001 305.091 240.565C305.96 239.096 306.9 237.604 307.857 236.168C308.307 235.494 308.773 234.788 309.255 233.993C309.705 233.255 310.188 232.348 310.284 231.602C310.405 230.607 309.721 229.604 308.789 228.93C307.816 228.232 306.474 227.598 305.236 227.101C304.4 226.764 303.58 226.411 302.793 226.114C299.481 224.846 296.418 223.707 293.131 222.567C292.713 222.423 292.303 222.198 291.877 222.014C291.451 221.829 291.024 221.612 290.615 221.428C289.746 221.035 288.959 220.73 288.187 220.473C286.595 219.951 285.149 219.655 283.919 220.345C283.356 220.658 282.858 221.291 282.359 221.998C281.387 223.37 280.535 224.934 279.666 226.491C279.224 227.285 278.855 228.072 278.364 228.954L278.38 228.946Z" fill="#5F5999"/>
<path fill-rule="evenodd" clip-rule="evenodd" d="M276.09 233.905C275.873 234.33 275.487 235.141 275.31 235.727C275.077 236.505 275.141 237.211 275.672 237.724C276.001 238.045 276.508 238.286 277.022 238.567C277.488 238.824 278.035 239.032 278.573 239.297C279.819 239.907 280.527 240.196 281.628 240.733C283.734 241.769 285.856 242.844 287.673 243.815C290.518 245.339 293.629 247.088 296.66 248.436C297.688 248.894 298.605 249.094 299.368 248.814C300.518 248.38 301.257 246.134 302.005 244.617C302.857 242.884 303.613 241.375 304.368 239.875C305.614 237.412 306.948 235.414 308.291 233.183C308.725 232.461 309.263 231.498 309.344 230.808C309.432 229.981 308.669 229.548 307.712 229.027C307.182 228.738 306.595 228.481 306.113 228.272C304.987 227.783 303.95 227.293 302.945 226.868C301.973 226.459 300.896 226.098 299.843 225.705C298.693 225.271 297.656 224.83 296.74 224.485C293.91 223.402 290.269 221.693 287.375 220.698C286.435 220.377 285.301 219.992 284.457 220.016C283.396 220.04 282.681 221.195 282.014 222.543C281.057 224.493 280.085 226.411 279.144 228.32C278.204 230.23 277.07 232.003 276.09 233.921V233.905Z" fill="white"/>
<path fill-rule="evenodd" clip-rule="evenodd" d="M306.426 233.881C307.712 234.619 309.303 235.117 310.783 235.839C311.892 236.384 313.041 236.97 314.167 237.468C314.488 237.612 314.85 237.805 315.179 237.724C315.26 237.516 315.059 237.331 314.938 237.187C314.552 236.746 313.99 236.28 313.435 235.879C314.022 236.072 314.697 236.352 315.332 236.513C315.517 236.561 315.782 236.657 315.871 236.513C316.015 236.28 315.437 235.895 315.244 235.726C313.419 234.186 310.139 232.509 307.752 231.698C307.326 232.461 306.852 233.095 306.434 233.889L306.426 233.881Z" fill="#EDA2B5"/>
<path fill-rule="evenodd" clip-rule="evenodd" d="M275.687 232.91C275.47 233.335 275.084 234.146 274.908 234.731C274.674 235.51 274.739 236.216 275.269 236.729C275.599 237.05 276.105 237.291 276.62 237.572C277.086 237.829 277.633 238.037 278.171 238.302C279.417 238.912 280.124 239.201 281.226 239.738C283.332 240.773 285.454 241.849 287.262 242.82C290.108 244.344 293.219 246.093 296.249 247.441C297.278 247.899 298.194 248.099 298.958 247.818C300.108 247.385 300.847 245.138 301.587 243.622C302.439 241.889 303.194 240.388 303.95 238.88C305.196 236.416 306.522 234.418 307.872 232.188C308.307 231.466 308.845 230.503 308.925 229.813C309.014 228.986 308.25 228.553 307.294 228.031C306.763 227.743 306.176 227.486 305.694 227.277C304.569 226.788 303.532 226.29 302.527 225.873C301.554 225.464 300.477 225.103 299.424 224.71C298.275 224.276 297.238 223.835 296.321 223.49C293.5 222.407 289.851 220.698 286.957 219.703C286.016 219.382 284.883 218.997 284.039 219.021C282.978 219.045 282.263 220.2 281.595 221.548C280.639 223.49 279.666 225.416 278.726 227.325C277.785 229.235 276.652 231.008 275.671 232.926L275.687 232.91Z" fill="#BDBDE5"/>
<path fill-rule="evenodd" clip-rule="evenodd" d="M279.924 233.76C279.659 234.234 279.08 235.317 279.257 235.911C279.393 236.384 279.835 236.601 280.551 236.994C281.266 237.387 282.456 237.901 283.284 238.246C283.766 238.446 284.289 238.711 284.594 238.623C284.972 238.511 285.35 237.869 285.655 237.203C285.936 236.577 286.21 235.951 286.459 235.389C287.054 234.025 287.649 232.998 288.268 231.835C288.919 230.615 289.489 229.588 290.165 228.409C290.751 227.381 291.724 225.857 291.547 224.998C291.33 223.955 289.369 223.482 288.139 222.824C287.641 222.551 287.255 222.342 286.837 222.302C285.655 222.206 284.972 223.61 284.264 225.038C282.89 227.839 281.322 230.944 279.956 233.72C279.956 233.736 279.94 233.752 279.932 233.768L279.924 233.76Z" fill="#F8F8F8"/>
<path fill-rule="evenodd" clip-rule="evenodd" d="M280.221 243.806C279.787 243.124 280.342 242.45 280.607 241.897C281.314 240.388 281.973 237.789 283.195 236.737C284.377 235.71 286.66 235.766 287.697 234.539C288.259 233.873 288.653 232.766 289.136 231.859C290.502 229.251 292.021 226.483 293.444 223.923C295.43 220.361 297.11 216.782 299.376 213.508C299.199 209.159 298.235 205.605 297.745 201.561C301.732 200.734 305.67 199.843 309.81 199.169C310.694 202.997 311.562 207.017 312.398 211.021C312.672 212.345 313.098 213.757 313.065 215.129C313.017 217.745 311.313 219.839 309.81 221.821C308.347 223.763 306.715 225.632 305.309 227.173C303.034 229.668 300.566 232.292 298.13 234.916C297.327 235.783 296.113 236.689 295.735 237.403C295.349 238.126 295.237 239.257 294.971 240.172C294.714 241.054 294.441 241.937 294.111 242.755C293.412 244.489 291.941 247.618 289.899 246.198C289.61 245.997 289.409 245.612 289.039 245.532C288.597 245.435 288.083 245.78 287.697 245.724C286.941 245.612 286.555 244.472 285.784 244.288C284.706 244.031 284.216 244.785 283.485 243.999C283.147 243.397 283.284 242.242 283.581 241.704C283.597 241.624 283.678 241.608 283.678 241.512C282.633 242.33 281.933 243.951 280.229 243.806H280.221Z" fill="#B9695B"/>
<path d="M298.122 234.916C300.566 232.292 303.034 229.668 305.3 227.173C306.707 225.632 308.331 223.763 309.802 221.821C311.305 219.839 313.009 217.745 313.057 215.129C313.082 213.749 312.664 212.345 312.39 211.021C311.554 207.017 310.686 202.997 309.802 199.169C309.231 199.258 308.677 199.37 308.122 199.466C308.251 200.277 308.451 201.103 308.612 201.962C309.287 205.621 310.308 209.801 310.525 213.396C310.574 214.166 310.533 215.249 310.437 215.755C310.019 217.945 308.371 219.983 307.133 221.805C304.545 225.584 301.868 229.187 299.216 232.581C298.179 233.905 297.093 235.229 296.257 236.641C296.209 236.721 296.153 236.81 296.097 236.898C296.627 236.288 297.495 235.59 298.122 234.916Z" fill="#9B443B"/>
<path d="M299.368 213.508L302.447 211.173L299.239 211.622L299.368 213.508Z" fill="#9B443B"/>
<path d="M334.05 43.5089C331.28 44.0987 329.116 46.256 328.525 49.0179C327.934 46.256 325.77 44.0987 323 43.5089C325.77 42.9192 327.934 40.7619 328.525 38C329.116 40.7619 331.28 42.9192 334.05 43.5089Z" fill="white"/>
<path d="M130.05 30.5089C127.28 31.0987 125.116 33.256 124.525 36.0179C123.934 33.256 121.77 31.0987 119 30.5089C121.77 29.9192 123.934 27.7619 124.525 25C125.116 27.7619 127.28 29.9192 130.05 30.5089Z" fill="white"/>
</svg>
